<?xml version="1.0" standalone="no"?>
<!DOCTYPE svg PUBLIC "-//W3C//DTD SVG 1.1//EN" "http://www.w3.org/Graphics/SVG/1.1/DTD/svg11.dtd">
<svg xmlns="http://www.w3.org/2000/svg">
<metadata>Generated by Fontastic.me</metadata>
<defs>
<font id="buzzybrains" horiz-adv-x="512">
<font-face font-family="buzzybrains" units-per-em="512" ascent="480" descent="-32"/>
<missing-glyph horiz-adv-x="512" />

<glyph glyph-name="angle-down" unicode="&#97;" d="M399 302c0-3-1-5-3-7l-133-133c-2-2-5-3-7-3-2 0-5 1-7 3l-133 133c-2 2-3 4-3 7 0 2 1 4 3 6l15 15c1 1 4 2 6 2 3 0 5-1 7-2l112-113 112 113c2 1 4 2 7 2 2 0 5-1 6-2l15-15c2-2 3-4 3-6z"/>
<glyph glyph-name="angle-left" unicode="&#98;" d="M344 357c0-3-1-5-3-7l-112-112 112-113c2-1 3-4 3-6 0-3-1-5-3-7l-14-14c-2-2-5-3-7-3-2 0-5 1-7 3l-133 133c-2 2-3 4-3 7 0 2 1 4 3 6l133 133c2 2 5 3 7 3 2 0 5-1 7-3l14-14c2-2 3-4 3-6z"/>
<glyph glyph-name="angle-right" unicode="&#99;" d="M335 238c0-3-1-5-3-7l-133-133c-2-2-5-3-7-3-2 0-5 1-7 3l-14 14c-2 2-3 4-3 7 0 2 1 5 3 6l112 113-112 112c-2 2-3 4-3 7 0 2 1 4 3 6l14 14c2 2 5 3 7 3 2 0 5-1 7-3l133-133c2-2 3-4 3-6z"/>
<glyph glyph-name="angle-up" unicode="&#100;" d="M399 174c0-3-1-5-3-7l-15-14c-1-2-4-3-6-3-3 0-5 1-7 3l-112 112-112-112c-2-2-4-3-7-3-2 0-5 1-6 3l-15 14c-2 2-3 4-3 7 0 2 1 4 3 6l133 133c2 2 5 3 7 3 2 0 5-1 7-3l133-133c2-2 3-4 3-6z"/>
<glyph glyph-name="settings" unicode="&#101;" d="M213 331c44 0 79-33 85-75l75 0c-1 10-3 20-5 29l61 35-43 74-61-35c-19 19-42 33-69 40l0 70-85 0 0-70c-27-7-51-21-70-40l-60 35-43-74 61-35c-4-12-6-26-6-40 0-13 2-27 6-40l-61-35 43-74 60 35c19-18 43-32 70-40l0-70 85 0 0 151c-13-7-27-12-43-12-47 0-85 38-85 85 0 47 38 86 85 86z m278-203c0 8-2 15-4 23l40 23-22 36-39-22c-11 11-24 18-39 22l0 46-43 0 0-46c-15-4-29-11-40-22l-39 22-21-36 39-23c-2-8-3-15-3-23 0-8 1-15 3-23l-39-23 21-36 39 22c11-11 25-18 40-22l0-46 43 0 0 46c15 4 28 11 39 22l40-22 21 36-40 23c2 8 4 15 4 23z m-86-43c-23 0-42 19-42 43 0 24 19 43 42 43 24 0 43-19 43-43 0-24-19-43-43-43z"/>
<glyph glyph-name="lightbulb-shine" unicode="&#102;" d="M132 426l-23 22c-6 6-17 6-23 0-6-6-6-16 0-22l23-23c6-6 16-6 23 0 6 6 6 16 0 23m-84-138l-32 0c-9 0-16-7-16-16 0-9 7-16 16-16l32 0c9 0 16 7 16 16 0 9-7 16-16 16m448-32l-32 0c-9 0-16-7-16-16 0-9 7-16 16-16l32 0c9 0 16 7 16 16 0 9-7 16-16 16m-48 170c-6 6-16 6-22 0l-23-23c-6-6-6-16 0-23 6-6 16-6 23 0l22 23c6 6 6 16 0 23m-176 22c4 0 8 2 11 5 3 3 5 7 5 11l0 32c0 9-7 16-16 16-7 0-12-4-15-10l-1-6 0-32c0-9 7-16 16-16m-16-64c-71 0-128-57-128-128 0-47 26-88 64-110l0-50 128 0 0 50c38 22 64 63 64 110 0 71-57 128-128 128m48-211l-16-9 0-36-64 0 0 36-16 9c-30 18-48 49-48 83 0 53 43 96 96 96 53 0 96-43 96-96 0-34-18-65-48-83m-112-141l33 0-1-4c0-15 14-28 32-28 18 0 32 13 32 28l-1 4 33 0 0 32-128 0z"/>
<glyph glyph-name="database" unicode="&#103;" d="M256 32c-106 0-192 29-192 64 0 19 0 40 0 64 0 6 3 11 7 16 21-28 96-48 185-48 89 0 164 20 185 48 4-5 7-10 7-16 0-19 0-38 0-64 0-35-86-64-192-64z m0 128c-106 0-192 29-192 64 0 19 0 40 0 64 0 3 1 7 3 10 1 2 2 4 4 6 21-28 96-48 185-48 89 0 164 20 185 48 2-2 3-4 4-6 2-3 3-7 3-10 0-19 0-38 0-64 0-35-86-64-192-64z m0 128c-106 0-192 29-192 64 0 10 0 21 0 32 0 10 0 21 0 32 0 35 86 64 192 64 106 0 192-29 192-64 0-10 0-21 0-32 0-10 0-20 0-32 0-35-86-64-192-64z m0 160c-71 0-128-14-128-32 0-18 57-32 128-32 71 0 128 14 128 32 0 18-57 32-128 32z"/>
<glyph glyph-name="cloud-upload" unicode="&#104;" d="M347 265c0 3 0 5-2 7l-101 100c-1 2-4 3-6 3-3 0-5-1-7-3l-100-100c-2-2-3-5-3-7 0-3 1-5 3-6 1-2 3-3 6-3l64 0 0-101c0-2 1-4 3-6 2-2 4-3 6-3l55 0c3 0 5 1 7 3 1 2 2 4 2 6l0 101 64 0c3 0 5 1 7 3 2 2 2 4 2 6z m183-82c0-30-10-56-32-78-21-21-47-32-77-32l-311 0c-36 0-66 13-91 38-25 25-37 55-37 90 0 25 6 48 20 69 13 21 31 36 53 47 0 6 0 10 0 12 0 41 14 75 43 104 28 28 63 42 103 42 30 0 57-8 82-24 24-17 42-39 54-66 13 11 29 17 47 17 20 0 37-7 52-21 14-14 21-32 21-52 0-14-4-27-12-39 25-6 46-19 61-39 16-20 24-43 24-68z"/>
<glyph glyph-name="puzzle" unicode="&#105;" d="M402 262l0 66 0 0c0 11-8 20-19 20l0 1-62 0c0 0-1 0-1 0 0 0-1 0-1 0l-1 0 0 0c-14 1-26 13-26 27 0 7 3 12 6 17l0 0c3 6 5 13 5 21 0 23-19 42-42 42-23 0-42-19-42-42 0-8 2-15 6-21l-1 0c4-5 6-10 6-17 0-14-11-26-26-27l0 0-74 0 0 0c-11 0-20-10-20-21 0 0 0 0 0-1l0-68 0 0c0-7 5-12 11-12 2 0 3 0 4 1 6 2 13 4 20 4 27 0 50-23 50-50 0-28-23-50-50-50-7 0-14 1-20 4-1 0-2 1-4 1-6 0-11-6-11-12 0-1 0-1 0-2l0 0 0-66c0 0 0 0 0-1 0-11 9-20 20-20 1 0 1 0 2 0l67 0c6 0 12 5 12 12 0 1-1 2-1 3 0 0 0 0 0 0 0 1 0 1 0 1l0 0c-2 5-2 9-2 14 0 28 22 50 50 50 27 0 50-22 50-50 0-5-1-9-2-14l0 0c-1-1-1-3-1-4 0-7 5-12 11-12 0 0 0 0 1 0l65 0c11 0 20 9 20 20l0 0 0 67 0 0c-1 6-5 10-11 10l0 1c-4-1-9-2-13-2-28 0-50 22-50 50 0 28 22 50 50 50 4 0 9-1 13-2l0 1c0 0 0 0 0 0 5 0 9 3 11 8l0 0 0 3c0 0 0 0 0 0 0 0 0 0 0 0z"/>
<glyph glyph-name="book" unicode="&#106;" d="M487 375c7-10 9-23 5-36l-79-259c-3-12-11-23-22-31-11-8-22-12-35-12l-263 0c-15 0-29 5-43 15-13 10-23 23-28 37-5 13-5 25-1 37 0 0 0 3 1 7 1 5 1 8 1 11 0 2 0 4-1 6 0 3-1 5-1 6 1 2 2 4 3 6 1 2 2 4 4 6 2 3 4 5 5 7 5 7 9 16 13 26 4 10 7 19 9 26 0 2 0 5-1 9 0 4 0 6 0 8 1 2 2 5 5 8 3 3 4 5 5 7 4 6 8 15 12 26 4 11 6 19 7 26 0 1 0 4-1 9 0 4 0 7 0 8 1 2 3 5 7 8 3 4 5 6 6 7 3 5 8 13 12 24 4 11 7 20 8 28 0 1 0 4-1 7-1 3-1 6-1 7 1 2 2 4 3 6 1 1 3 4 5 6 2 3 4 5 5 6 2 2 3 5 5 9 1 3 3 7 4 10 1 3 3 6 5 10 1 4 3 7 5 9 2 3 5 5 8 7 3 2 6 3 10 3 4 0 8 0 14-1l-1-1c8 2 12 2 15 2l217 0c14 0 25-5 33-16 7-10 9-23 5-37l-78-259c-7-22-14-37-21-43-6-7-19-10-36-10l-249 0c-5 0-8-2-11-5-2-3-2-7 0-12 5-13 18-20 41-20l264 0c6 0 11 2 16 5 5 3 8 6 10 11l86 282c1 5 2 10 1 17 7-3 13-7 17-13z m-304 0c-1-3-1-5 0-7 1-1 3-2 6-2l174 0c2 0 4 1 7 2 2 2 4 4 5 7l6 18c0 3 0 5-1 7-1 1-3 2-6 2l-173 0c-3 0-5-1-8-2-2-2-4-4-4-7z m-24-73c-1-3-1-5 0-7 2-2 3-2 6-2l174 0c2 0 5 0 7 2 3 2 4 4 5 7l6 18c1 2 0 5-1 6-1 2-3 3-5 3l-174 0c-3 0-5-1-7-3-3-1-4-4-5-6z"/>
<glyph glyph-name="certificate-file" unicode="&#107;" d="M384 320c-53 0-96-43-96-96 0-28 13-53 32-71l0-153 64 64 64-64 0 153c20 18 32 43 32 71 0 53-43 96-96 96m0-160c-35 0-64 29-64 64 0 35 29 64 64 64 35 0 64-29 64-64 0-35-29-64-64-64m-170-96l-150 0 0 384 179 0 96-96 77 0 0 13-147 147-269 0 0-512 275 0-60 63z m-118 288l160 0 0-32-160 0z m0-64l160 0 0-32-160 0z m0-64l160 0 0-32-160 0z"/>
<glyph glyph-name="phone" unicode="&#108;" d="M384 512l-256 0c-27 0-48-21-48-48l0-416c0-27 21-48 48-48l256 0c26 0 48 22 48 48l0 416c0 27-22 48-48 48z m16-464c0-9-7-16-16-16l-256 0c-9 0-16 7-16 16l0 32 288 0z m0 48l-288 0 0 320 288 0z m0 336l-288 0 0 32c0 9 7 16 16 16l256 0c9 0 16-7 16-16z m-112 24c0-4-4-8-8-8l-48 0c-4 0-8 4-8 8 0 4 4 8 8 8l48 0c4 0 8-4 8-8z m-16-400c0-4-4-8-8-8l-16 0c-4 0-8 4-8 8 0 4 4 8 8 8l16 0c4 0 8-4 8-8z"/>
<glyph glyph-name="smart-phone-2" unicode="&#109;" d="M128 384l224 0 0-192-224 0z m64 64l96 0 0-32-96 0z m160 64l-224 0c-35 0-64-29-64-64l0-384c0-35 29-64 64-64l224 0c35 0 64 29 64 64l0 384c0 35-29 64-64 64m32-448c0-18-14-32-32-32l-224 0c-18 0-32 14-32 32l0 384c0 18 14 32 32 32l224 0c18 0 32-14 32-32z m-256 32l32 0 0-32-32 0z m64 0l32 0 0-32-32 0z m64 0l32 0 0-32-32 0z m64 0l32 0 0-32-32 0z m-192 64l32 0 0-32-32 0z m64 0l32 0 0-32-32 0z m64 0l32 0 0-32-32 0z m64 0l32 0 0-32-32 0z"/>
<glyph glyph-name="display" unicode="&#111;" d="M432 432l-352 0c-9 0-16-7-16-16l0-224c0-9 7-16 16-16l352 0c9 0 16 7 16 16l0 224c0 9-7 16-16 16z m0-240l-352 0 0 224 352 0z m32 304l-416 0c-27 0-48-21-48-48l0-320c0-26 21-48 48-48l160 0 0-19-100-13c-7-2-12-9-12-16 0-9 7-16 16-16l288 0c9 0 16 7 16 16 0 7-5 14-12 16l-100 13 0 19 160 0c27 0 48 22 48 48l0 320c0 27-22 48-48 48z m16-368c0-9-7-16-16-16l-416 0c-9 0-16 7-16 16l0 320c0 9 7 16 16 16l416 0c9 0 16-7 16-16z"/>
<glyph glyph-name="menu-button" unicode="&#110;" d="M0 85l512 0 0 57-512 0z m0 143l512 0 0 56-512 0z m0 199l0-57 512 0 0 57z"/>
<glyph glyph-name="html-tag" unicode="&#112;" d="M511 383l0 75c0 4-3 7-7 7l-497 0c-4 0-7-3-7-7l0-96c0-1 0-1 0-2l0-312 512 0 0 335z m-493-317l0 288 475 0 0-288z m50 160l97 50 0-14-82-41 0-1 82-40 0-15-97 50z m275 50l97-50 0-11-97-50 0 15 82 40 0 1-82 41z m-85 3c-35 0-63-29-63-64 0-35 28-63 63-63 30 0 55 20 62 47l1 5c1 4 1 8 1 11 0 35-29 64-64 64z m56-74c-9-5-26 2-28-13-1-9 7-13 10-19-8-7-17-12-28-14 2 2 3 3 3 5 1 4-2 7-3 11 0 5-1 12-8 12-2 0-6-1-8 0-2 2-4 4-7 4-6 1-11-5-13-10-1-6 0-12 2-17-8 4-15 10-21 17 5-2 10-2 10 4 1 8-12 15-13 23 1 1 1 3 2 5 2 5 7 9 3 16-1 3-5 5-10 7 5 12 14 22 25 28 18-13 1-43 18-52 15-6 7 18 19 19 4 0 6-8 10-10 6-3 7 4 15-2 8-7 8 1 10 9 1 8-8 7-8 11-2 13 4 14-7 25 0 0-1 1-1 1 17-10 29-28 29-50 0-3 0-6-1-10z"/>
<glyph glyph-name="application-development" unicode="&#113;" d="M128 472l46 0c3 0 6 3 6 6 0 4-3 7-6 7l-46 0c-4 0-7-3-7-7 0-3 3-6 7-6z m23-409c-12 0-21-9-21-21 0-12 9-21 21-21 11 0 21 9 21 21 0 12-10 21-21 21z m0-29c-5 0-8 4-8 8 0 4 3 8 8 8 4 0 8-4 8-8 0-4-4-8-8-8z m-81 327l81 0c4 0 7 3 7 6 0 4-3 7-7 7l-81 0c-3 0-6-3-6-7 0-3 3-6 6-6z m0-116l81 0c4 0 7 2 7 6 0 4-3 6-7 6l-81 0c-3 0-6-2-6-6 0-4 3-6 6-6z m116-11l-116 0c-3 0-6-3-6-7 0-3 3-6 6-6l116 0c3 0 6 3 6 6 0 4-3 7-6 7z m312 22c3 0 6 3 6 7l0 165c0 3-3 6-6 6l-204 0 0 51c0 15-12 27-27 27l-232 0c-15 0-27-12-27-27l0-458c0-15 12-27 27-27l232 0c15 0 27 12 27 27l0 96 204 0c3 0 6 2 6 6l0 97c0 4-3 7-6 7l-204 0 0 23z m-7 13l-281 0 0 152 281 0z m-288-36c-3 0-6-3-6-7l0-35-146 0 0 107 146 0 0-17-127 0c-3 0-6-3-6-6 0-4 3-7 6-7l127 0 0-5c0-4 3-7 6-7l48 0 0-23z m0-110l48 0 0-11-200 0 0 43 146 0 0-26c0-4 3-6 6-6z m-6 275l-127 0c-3 0-6-3-6-7 0-3 3-6 6-6l127 0 0-52-146 0 0 80 146 0z m-162 101l232 0c7 0 14-6 14-14l0-34-260 0 0 34c0 8 6 14 14 14z m232-486l-232 0c-8 0-14 6-14 14l0 44 260 0 0-44c0-8-7-14-14-14z m14 71l-260 0 0 354 260 0 0-4-78 0c-3 0-6-3-6-6l0-2-153 0c-3 0-6-3-6-7l0-93c0-3 3-6 6-6l153 0 0-10-153 0c-3 0-6-2-6-6l0-119c0-4 3-7 6-7l153 0 0-10-153 0c-3 0-6-3-6-6l0-57c0-3 3-6 6-6l213 0c4 0 7 3 7 6l0 18 17 0z m210 51l-281 0 0 85 281 0z m-210 98l-17 0 0 23 17 0z m-42 148l223 0c4 0 7 3 7 6 0 4-3 7-7 7l-223 0c-3 0-6-3-6-7 0-3 3-6 6-6z m0-33l112 0c4 0 7 3 7 6 0 4-3 7-7 7l-112 0c-3 0-6-3-6-7 0-3 3-6 6-6z m0-158l223 0c4 0 7 3 7 6 0 4-3 7-7 7l-223 0c-3 0-6-3-6-7 0-3 3-6 6-6z m0-33l112 0c4 0 7 3 7 6 0 4-3 7-7 7l-112 0c-3 0-6-3-6-7 0-3 3-6 6-6z m0 158l160 0c4 0 6 3 6 6 0 4-2 7-6 7l-160 0c-3 0-6-3-6-7 0-3 3-6 6-6z m-102-175l-67 0c-3 0-6-3-6-7 0-3 3-6 6-6l67 0c3 0 6 3 6 6 0 4-3 7-6 7z"/>
<glyph glyph-name="triptych-brochure" unicode="&#114;" d="M162-1l188 0 0 445-188 0z m17 428l154 0 0-411-154 0z m26-265l103 0 0-94-103 0z m154 282l0-445 154 69 0 444z m137-365l-120-53 0 407 120 53z m-496-11l154-69 0 445-154 68z m17 418l120-53 0-407-120 53z m17-197l86-41 0 120-86 40z m445 59l-86-40 0-60 86 41z m-171 10l-103 0c-5 0-8-4-8-8 0-5 3-9 8-9l103 0c4 0 8 4 8 9 0 4-4 8-8 8z m0-34l-103 0c-5 0-8-4-8-9 0-4 3-8 8-8l103 0c4 0 8 4 8 8 0 5-4 9-8 9z m0-34l-103 0c-5 0-8-4-8-9 0-4 3-8 8-8l103 0c4 0 8 4 8 8 0 5-4 9-8 9z m91-93c1 0 2 0 4 0l71 34c4 2 7 7 7 11 0 4-2 7-6 7-1 0-2-1-3-1l-72-34c-4-2-7-7-7-11 0-4 3-6 6-6z m-287 17l-71 34c-1 0-2 1-4 1-3 0-6-3-6-7 0-4 4-9 8-11l71-34c1 0 3 0 4 0 3 0 6 2 6 6 0 4-4 9-8 11z m287-57c1 0 2 0 4 1l71 34c4 2 7 6 7 11 0 3-2 6-6 6-1 0-2 0-3-1l-72-34c-4-2-7-6-7-11 0-3 3-6 6-6z"/>
<glyph glyph-name="vector" unicode="&#115;" d="M142 452c-6-3-11-6-15-10-4-2-5-8-3-12 2-2 5-3 7-3 2 0 4 0 5 1 5 3 9 6 14 9 4 2 6 7 3 12-2 4-7 5-11 3z m227-9c-3-4-2-9 2-12 5-3 9-6 14-9 1-1 3-2 5-2 2 0 5 1 7 3 3 4 2 10-2 12-5 4-10 7-14 11-4 2-10 1-12-3z m117-174c-1 5-5 9-9 8-5 0-9-4-8-9 0-2 0-5 0-8l-25 0 0-68 68 0 0 68-26 0c0 3 0 6 0 9z m9-60l-34 0 0 34 34 0z m-455 124c-2-6-4-12-5-17-2-5 1-9 5-11 1 0 2 0 3 0 4 0 7 2 8 6 2 5 3 11 5 16 2 4 0 9-5 11-4 1-9-1-11-5z m425-6c-5-1-7-6-6-11 2-5 3-10 5-15 1-4 4-7 8-7 1 0 1 0 2 0 5 1 7 6 6 10-1 6-3 12-4 17-2 5-7 7-11 6z m-43 85c-4 3-9 3-13 0-3-3-3-9 0-12 4-4 8-8 11-12 2-2 4-3 7-3 2 0 4 0 5 2 4 3 4 8 1 12-3 4-7 9-11 13z m-312-4c4 3 4 8 1 12-3 3-9 3-12 0-4-4-9-8-13-12-3-4-3-9 1-12 2-2 4-3 6-3 2 0 4 1 6 3 4 4 8 8 11 12z m345-66c1 0 2 0 3 1 5 2 6 7 4 11-2 6-5 11-8 16-3 4-8 5-12 3-4-3-5-8-3-12 3-5 6-9 8-14 2-3 5-5 8-5z m-412-79c0 5 1 11 1 16 1 5-2 9-7 10-5 0-9-3-10-8 0-6-1-12-1-17 0-2 0-3 0-4l-26 0 0-68 68 0 0 68-26 0c1 1 1 2 1 3z m8-54l-34 0 0 34 34 0z m13 171c-3-5-6-10-9-15-2-4-1-10 3-12 2-1 3-1 5-1 3 0 5 2 7 4 3 5 6 10 9 14 2 4 1 10-3 12-4 3-9 2-12-2z m-30 59c16 0 29 11 33 26l104 0c-3-2-4-6-2-9 1-4 4-6 8-6 1 0 2 1 3 1 5 2 10 4 15 5 4 1 6 5 6 9l20 0c0 0 0-1 1-1l0-25 68 0 0 23c2 0 4 0 6-1 0 0 1 0 1 0 3 0 6 2 7 4l19 0c0 0-1-1-1-1-2-5 1-10 5-11 5-2 10-4 15-6 2-1 3-1 4-1 3 0 6 2 8 5 2 4 0 9-5 11-2 1-4 2-6 3l102 0c4-15 17-26 33-26 19 0 34 16 34 35 0 18-15 34-34 34-16 0-29-11-33-26l-155 0 0 26-68 0 0-26-155 0c-4 15-17 26-33 26-19 0-34-16-34-34 0-19 15-35 34-35z m444 52c9 0 17-8 17-17 0-10-8-17-17-17-10 0-17 7-17 17 0 9 7 17 17 17z m-239 0l34 0 0-34-34 0z m-205 0c10 0 17-8 17-17 0-10-7-17-17-17-9 0-17 7-17 17 0 9 8 17 17 17z m231-69c0 5-4 9-9 9-5 0-9-4-9-9l0-6-152-233 44 0c27 0 49-22 49-49l0-87 17 0 0-43 102 0 0 43 17 0 0 87c0 27 22 49 49 49l44 0-152 233z m-9-204c9 0 17-8 17-17 0-10-8-18-17-18-9 0-17 8-17 18 0 9 8 17 17 17z m34-197l-68 0 0 26 68 0z m17 43l-102 0 0 26 102 0z m66 137c-36 0-66-30-66-67l0-27-102 0 0 27c0 37-30 67-66 67l-12 0 120 184 0-152c-14-3-25-17-25-32 0-19 15-35 34-35 19 0 34 16 34 35 0 15-11 29-25 32l0 152 120-184z"/>
<glyph glyph-name="chevron-left" unicode="&#116;" d="M408 426l-152-152 152-151c3-4 5-8 5-13 0-5-2-10-5-13l-48-48c-3-3-8-5-13-5-5 0-9 2-12 5l-212 212c-4 4-6 8-6 13 0 5 2 10 6 13l212 212c3 4 7 6 12 6 5 0 10-2 13-6l48-47c3-4 5-8 5-13 0-5-2-9-5-13z"/>
<glyph glyph-name="chevron-right" unicode="&#117;" d="M389 261l-212-212c-3-3-7-5-12-5-5 0-10 2-13 5l-48 48c-3 3-5 8-5 13 0 5 2 9 5 13l152 151-152 152c-3 4-5 8-5 13 0 5 2 9 5 13l48 47c3 4 8 6 13 6 5 0 9-2 12-6l212-212c4-3 6-8 6-13 0-5-2-9-6-13z"/>
<glyph glyph-name="pin-alt" unicode="&#118;" d="M256 512c-106 0-192-86-192-192 0-106 192-320 192-320 0 0 192 214 192 320 0 106-86 192-192 192z m0-320c-71 0-128 57-128 128 0 71 57 128 128 128 71 0 128-57 128-128 0-71-57-128-128-128z m0 192c-35 0-64-29-64-64 0-35 29-64 64-64 35 0 64 29 64 64 0 35-29 64-64 64z"/>
<glyph glyph-name="social-tumblr" unicode="&#119;" d="M321 116c-12 0-22 2-31 8-7 4-12 10-14 16-3 7-4 23-4 47l0 101 96 0 0 64-96 0 0 112-62 0c-2-22-7-45-14-59-7-14-14-25-26-35-11-10-25-18-42-24l0-58 48 0 0-140c0-19 2-34 6-44 4-10 11-19 22-28 10-9 22-16 37-21 14-5 31-7 50-7 17 0 31 2 45 5 14 3 30 9 48 18l0 65c-21-13-42-20-63-20z"/>
<glyph glyph-name="social-facebook" unicode="&#120;" d="M288 320l0 38c0 17 4 26 31 26l33 0 0 64-56 0c-68 0-91-31-91-85l0-43-45 0 0-64 45 0 0-192 83 0 0 192 56 0 8 64z"/>
<glyph glyph-name="social-twitter" unicode="&#121;" d="M492 402c-17-7-36-12-56-15 20 12 36 31 43 54-19-11-39-19-61-24-18 19-43 31-71 31-54 0-97-43-97-97 0-8 1-15 3-22-81 4-152 43-200 101-8-14-13-31-13-48 0-34 17-64 43-81-16 0-31 5-44 12 0 0 0-1 0-1 0-47 33-86 78-95-8-2-17-4-26-4-6 0-12 1-18 2 12-38 48-66 91-67-34-26-75-42-121-42-8 0-15 1-23 2 43-28 94-44 148-44 179 0 276 148 276 276 0 4 0 8 0 12 19 14 35 31 48 50z"/>
<glyph glyph-name="social-linkedin" unicode="&#122;" d="M417 448l-320 0c-18 0-33-13-33-30l0-321c0-17 15-33 33-33l320 0c18 0 31 16 31 33l0 321c0 17-13 30-31 30z m-234-320l-55 0 0 171 55 0z m-26 197l0 0c-18 0-29 13-29 29 0 17 12 30 30 30 18 0 29-13 29-30 0-16-11-29-30-29z m227-197l-55 0 0 93c0 23-8 38-28 38-15 0-24-10-28-20-2-4-2-9-2-14l0-97-55 0 0 171 55 0 0-24c8 12 21 28 50 28 36 0 63-24 63-75z"/>
<glyph glyph-name="social-skype" unicode="&#65;" d="M437 215c3 13 4 26 4 39 0 100-82 180-183 180-11 0-21 0-31-2-17 10-36 16-57 16-58 0-106-47-106-105 0-19 5-37 15-53-3-11-4-24-4-36 0-100 82-181 183-181 12 0 23 1 34 3 15-8 32-12 50-12 58 0 106 47 106 105 0 16-4 32-11 46z m-85-47c-9-12-21-22-37-28-16-7-36-10-58-10-26 0-48 5-65 14-12 6-23 15-30 26-8 11-12 22-12 33 0 6 3 12 8 17 5 4 11 7 19 7 6 0 11-2 16-6 4-3 8-9 10-15 4-8 7-14 11-19 4-4 9-8 15-11 7-4 16-5 27-5 15 0 27 3 37 9 9 6 13 14 13 23 0 7-2 13-7 17-5 5-11 8-19 11-9 2-20 5-34 8-19 4-35 9-48 14-13 5-24 13-31 23-8 9-12 22-12 36 0 14 4 26 12 36 8 11 20 19 36 25 15 5 33 8 53 8 17 0 31-2 43-5 12-4 22-9 30-15 8-7 14-13 18-20 4-7 6-14 6-21 0-6-3-12-8-17-5-5-11-8-18-8-7 0-12 2-16 5-4 3-7 8-11 14-5 9-10 16-16 20-7 5-17 7-31 7-13 0-24-2-32-7-7-5-11-11-11-18 0-4 1-7 4-10 2-3 6-6 11-8 4-3 9-5 14-6 5-1 14-3 26-6 14-3 28-7 40-10 12-4 23-9 31-15 9-5 16-12 21-21 5-9 7-19 7-32 1-15-3-29-12-40z"/>
<glyph glyph-name="social-whatsapp" unicode="&#66;" d="M260 480c-121 0-220-98-220-218 0-41 12-80 32-113l-40-117 122 39c31-18 68-27 106-27 122 0 220 97 220 218 0 120-98 218-220 218z m109-301c-5-13-28-25-38-25-11-1-11-8-67 16-57 25-90 84-93 88-3 4-22 31-21 58 1 28 16 41 22 46 5 5 11 6 15 7 4 0 7 0 10 0 4-1 9 0 13-11 4-11 14-39 16-42 1-3 2-6 0-10-2-4-3-6-6-9-3-3-6-7-9-9-3-3-6-6-3-12 3-5 14-24 30-39 21-20 38-27 44-30 5-3 9-2 12 1 4 4 15 16 19 21 4 6 7 5 13 3 5-2 32-17 37-20 6-3 9-4 11-7 1-2 1-13-5-26z"/>
<glyph glyph-name="social-youtube" unicode="&#67;" d="M509 363c0 45-33 81-74 81-56 3-112 4-170 4-3 0-6 0-9 0-3 0-6 0-9 0-58 0-114-1-170-4-40 0-73-36-73-81-3-36-4-71-4-107 0-35 1-71 3-107 0-45 34-81 74-81 59-3 118-4 179-4 61 0 120 1 179 4 40 0 74 36 74 81 2 36 3 72 3 107 0 36-1 71-3 107z m-302-205l0 197 145-99z"/>
<glyph glyph-name="social-rss" unicode="&#68;" d="M120 176c-31 0-56-25-56-56 0-31 25-56 56-56 31 0 56 25 56 56 0 31-25 56-56 56z m-56 144l0-80c48 0 94-14 128-48 34-34 48-80 48-128l80 0c0 140-116 256-256 256z m0 128l0-80c171 0 304-133 304-304l80 0c0 212-172 384-384 384z"/>
<glyph glyph-name="social-instagram-outline" unicode="&#69;" d="M449 400c0 26-22 47-48 47l-289 0c-26 0-47-21-47-47l0-289c0-26 21-48 47-48l289 0c26 0 48 22 48 48z m-192-64c44 0 80-36 80-80 0-44-36-80-80-80-44 0-80 36-80 80 0 44 36 80 80 80z m160 15c0-8-8-16-16-16l-48 0c-9 0-16 8-16 16l0 48c0 9 7 16 16 16l48 0c8 0 16-7 16-16z m-15-256l-288 0c-9 0-17 9-17 17l0 175 53 0c-3-10-5-20-5-31 0-30 12-58 33-79 21-21 49-33 79-33 30 0 58 12 79 33 21 21 33 49 33 79 0 11-2 21-5 31l53 0 0-175c0-8-7-17-15-17z"/>
<glyph glyph-name="social-dribbble" unicode="&#70;" d="M256 448c-106 0-192-86-192-192 0-106 86-192 192-192 106 0 192 86 192 192 0 106-86 192-192 192z m0-352c-88 0-159 72-159 160 0 88 71 159 159 159 88 0 160-71 160-159 0-88-72-160-160-160z m50 169c24 2 51 3 78 3-3 25-12 48-27 67-17-15-38-28-64-39 5-10 9-20 13-31z m29 91c-21 18-49 28-79 28-5 0-10 0-15-1 14-18 27-38 38-59 22 9 41 20 56 32z m-129 18c-34-15-61-44-72-79 41 0 80 7 113 17-12 23-26 44-41 62z m177-134c-22 0-46 0-67-2 4-12 8-25 12-38 3-14 7-29 9-43 25 20 42 50 46 83z m-125 16c4 1 9 3 14 4-3 8-7 17-10 24-40-12-85-20-134-21 0-2 0-5 0-7 0-29 10-56 26-78 25 33 61 60 104 78z m25-22c-7-2-13-3-18-6-37-16-68-41-90-71 22-18 50-29 81-29 19 0 36 4 52 11-3 15-6 30-10 46-5 16-10 33-15 49z"/>
<glyph glyph-name="social-pinterest" unicode="&#71;" d="M256 480c-124 0-224-100-224-224 0-92 55-171 134-205 0 15 0 34 4 51 4 18 29 122 29 122 0 0-7 15-7 36 0 33 19 58 43 58 20 0 30-16 30-34 0-20-13-51-20-79-5-24 12-44 36-44 42 0 71 55 71 120 0 49-33 85-94 85-67 0-110-50-110-107 0-19 6-33 15-44 4-5 5-7 3-12-1-4-3-14-4-18-2-6-7-8-12-6-31 13-46 47-46 86 0 63 54 140 161 140 85 0 141-62 141-129 0-88-49-153-121-153-24 0-46 13-54 28 0 0-13-52-16-62-5-17-14-34-23-48 21-6 42-9 64-9 124 0 224 100 224 224 0 124-100 224-224 224z"/>
<glyph glyph-name="social-vimeo" unicode="&#72;" d="M477 398c-5 23-18 39-41 46-23 8-65 5-94-17-30-21-47-59-54-83 15 6 24 7 39 7 15-1 25-12 25-26 1-10 0-18-3-27-11-29-28-57-48-81-3-4-6-7-10-10-10-8-19-6-25 5-6 9-9 19-12 29-13 40-17 81-24 122-4 19-7 40-18 57-12 17-29 24-50 22-15-2-37-18-48-27 0 0-56-47-82-71l21-27c0 0 18 12 28 18 6 4 12 4 17 0 5-4 10-9 12-14 6-11 12-22 15-34 13-44 26-88 38-133 6-23 14-44 28-63 19-27 39-33 71-22 25 9 46 26 66 44 33 30 59 65 85 101 21 28 38 56 52 87 14 31 19 64 12 97z"/>
<glyph glyph-name="social-wordpress" unicode="&#73;" d="M259 241l-33-96 0 0-25-73c2-1 3-1 5-2 0 0 0 0 0 0 16-4 33-6 50-6 8 0 17 0 25 2 11 1 22 4 32 7 3 1 5 2 8 2-3 6-9 20-9 20z m-178 90c-10-22-17-50-17-75 0-6 0-13 1-19 7-71 53-131 116-158 3-1 5-2 8-3l-93 255c-8 1-9 0-15 0z m349 6c-4 9-9 18-15 26-1 3-3 5-5 7-21 29-51 52-85 65-21 8-45 13-69 13-60 0-114-28-149-72-7-8-13-16-18-25 14 0 32 0 34 0 18 0 46 2 46 2 9 0 10-13 1-14 0 0-9-2-20-2l63-187 38 113-27 74c-9 0-18 1-18 1-9 1-8 15 1 15 0 0 28-3 45-3 19 0 46 3 46 3 10 0 11-13 2-15 0 0-10-1-20-1l62-186 17 58c9 22 14 41 14 56 0 21-8 36-15 47-8 14-17 26-17 41 0 15 12 30 29 30 1 0 2 0 3 0 26 1 34-25 35-43 0 0 0 0 0 0 1-8 1-13 1-19 0-18-4-37-14-62l-39-113-22-65c2 0 4 1 5 2 57 27 98 82 107 147 1 8 2 17 2 26 0 29-6 56-18 81z"/>
<glyph glyph-name="social-googleplus" unicode="&#74;" d="M242 236l-18 14 0 0c-6 5-10 8-10 15 0 7 5 12 11 17l0 1c20 15 45 34 45 74 0 27-12 45-23 58l13 0 60 33-133 0c-26 0-63-3-95-29l0 0c-22-18-35-44-35-71 0-21 9-42 24-57 21-22 48-26 67-26 2 0 3 0 5 0-1-3-2-6-2-10 0-11 4-20 8-26-24-2-58-7-84-23-40-22-43-56-43-65 0-39 36-77 116-77 91 0 139 50 139 99 0 37-23 55-45 73z m-125 136c0 13 3 24 9 31 7 8 18 13 29 13 20 0 33-15 40-28 10-15 15-36 15-53 0-5 0-20-10-30-7-7-19-11-28-11-21 0-34 14-41 27-11 17-14 38-14 51z m121-228c0-27-25-45-66-45-48 0-80 21-80 52 0 26 21 37 38 42 18 6 44 8 50 8 4 0 6 0 8-1 37-25 50-36 50-56z m164 226l0 78-34 0 0-78-80 0 0-34 80 0 0-81 34 0 0 81 78 0 0 34z"/>
<glyph glyph-name="social-github" unicode="&#75;" d="M256 480c-124 0-224-103-224-230 0-101 64-187 153-218 2 0 3 0 4 0 8 0 12 6 12 11 0 6-1 20-1 39-8-1-16-2-22-2-43 0-53 33-53 33-10 27-25 34-25 34-20 14 0 14 1 14 0 0 0 0 0 0 23-2 35-24 35-24 11-19 26-25 39-25 11 0 20 3 26 6 2 15 8 25 14 31-50 6-102 25-102 113 0 25 9 46 23 62-2 6-10 29 2 61 0 0 2 0 5 0 8 0 27-3 57-24 18 5 37 8 56 8 19 0 38-3 56-8 30 21 49 24 57 24 3 0 5 0 5 0 12-32 4-55 2-61 14-16 23-37 23-62 0-88-53-107-102-113 8-7 15-21 15-43 0-30-1-55-1-63 0-5 4-11 12-11 1 0 2 0 4 0 89 31 153 117 153 218 0 127-100 230-224 230z"/>
<glyph glyph-name="social-chrome" unicode="&#76;" d="M189 256c0-37 30-67 67-67 37 0 67 30 67 67 0 37-30 67-67 67-37 0-67-30-67-67z m288 38c0 0 0 0 0 0-2 10-4 20-7 29l0 0c3-9 5-19 7-29-2 10-4 20-7 29l-156 0c19-17 32-40 32-67 0-17-5-31-13-45l-102-177c0 0 0-1 0-1l0 0c0 0 0 0 0 0l0 0c8-1 17-1 25-1 7 0 14 0 20 1 10 1 20 3 30 5 100 22 174 112 174 218 0 13-1 26-3 38z m-221-127c-34 0-62 17-77 44l-103 178 0 0c-10-14-19-29-26-45-12-27-18-57-18-88 0-63 26-119 67-160 30-29 67-49 108-59l0 0 78 135c-9-3-19-5-29-5z m-165 240l78-133c7 40 43 72 87 72l205 0c-7 15-15 30-26 44 0 0 0 0 1 0 10-14 18-29 25-44l0 0c-7 15-15 30-25 44 0 0-1 0-1 0-41 55-106 90-179 90-26 0-52-5-75-13-35-12-65-33-90-59l0-1c0 0 0 0 0 0z"/>
<glyph glyph-name="user" unicode="&#77;" d="M392 142c70-24 105-45 105-62 0 0 0-54 0-54 0 0-241 0-241 0 0 0-241 0-241 0 0 0 0 54 0 54 0 17 35 38 105 62 32 12 54 24 65 36 12 12 18 28 18 48 0 8-4 16-12 25-7 10-12 22-16 38-1 4-2 7-5 9-2 2-4 3-7 4-2 1-4 4-7 9-2 5-4 12-4 22 0 5 0 10 2 13 2 4 3 6 5 6 0 0 2 2 2 2-3 17-5 32-6 45-2 19 5 38 21 58 15 19 42 29 80 29 38 0 65-10 81-29 16-20 22-39 20-58 0 0-6-45-6-45 6-2 9-10 9-21 0-10-2-17-4-22-3-5-5-8-7-9-3-1-5-2-7-4-3-2-4-5-5-9-3-17-8-29-16-38-8-9-12-17-12-25 0-20 6-36 18-48 12-12 34-24 65-36"/>
<glyph glyph-name="users" unicode="&#79;" d="M512 31c0 0-115 0-115 0 0 0 0 77 0 77 0 18-5 32-15 41-10 9-37 24-79 46 14 10 21 24 21 43 0 5-3 11-7 16-5 6-8 15-10 27 0 2-3 5-7 8-4 2-6 10-7 21 0 8 2 14 6 16-2 11-3 21-4 30-1 13 2 27 12 40 9 14 25 21 48 21 24 0 40-7 49-21 10-13 14-27 13-40 0 0-4-30-4-30 4-2 6-8 6-16-1-11-3-19-7-21-4-3-7-6-8-8-2-12-5-21-9-27-5-5-7-11-7-16 0-15 4-26 11-34 7-8 20-17 39-25 39-16 61-29 67-41 2-2 3-13 4-31 1-18 2-35 3-52 0 0 0-24 0-24m-250 134c62-27 93-48 93-64 0 0 0-70 0-70 0 0-355 0-355 0 0 0 0 94 0 94 0 15 14 28 43 40 26 11 44 22 53 33 10 11 15 26 15 45 0 7-4 14-10 22-7 8-11 20-13 35-1 3-4 7-9 11-6 4-9 14-10 29 0 5 0 9 1 12 1 3 2 5 4 6 0 0 2 1 2 1-2 16-4 30-5 42-2 17 4 35 17 53 12 18 34 27 65 27 30 0 52-9 65-27 12-18 18-36 16-53 0 0-5-42-5-42 5-2 8-9 8-19-2-15-5-25-11-29-5-4-8-8-9-11-2-15-6-27-13-35-6-8-9-15-9-22 0-19 4-34 14-45 9-11 27-22 53-33"/>
<glyph glyph-name="android-close" unicode="&#78;" d="M405 375l-30 30-119-119-119 119-30-30 119-119-119-119 30-30 119 119 119-119 30 30-119 119z"/>
<glyph glyph-name="android-done" unicode="&#80;" d="M186 172l-90 91-32-31 122-122 262 261-32 31z"/>
<glyph glyph-name="android-menu" unicode="&#81;" d="M64 128l384 0 0 43-384 0z m0 107l384 0 0 42-384 0z m0 149l0-43 384 0 0 43z"/>
<glyph glyph-name="android-search" unicode="&#82;" d="M338 207l-18 0-7 5c21 25 34 57 34 93 0 79-63 143-142 143-78 0-141-64-141-143 0-79 63-142 142-142 35 0 68 13 93 34l7-6 0-17 109-110 33 33z m-132 0c-54 0-98 44-98 98 0 55 44 99 98 99 55 0 99-44 99-99 0-54-44-98-99-98z"/>
<glyph glyph-name="android-remove" unicode="&#83;" d="M96 277l320 0 0-42-320 0z"/>
<glyph glyph-name="android-wifi" unicode="&#84;" d="M256 283c-23 0-42-18-42-41 0-23 19-41 42-41 23 0 42 18 42 41 0 23-19 41-42 41z m125-41c0 68-56 124-125 124-69 0-125-56-125-124 0-45 25-85 63-107l20 36c-25 14-41 40-41 71 0 45 37 82 83 82 46 0 83-37 83-82 0-31-16-57-41-71l20-36c38 22 63 62 63 107z m-125 206c-114 0-208-93-208-206 0-76 42-142 104-178l21 36c-50 29-83 81-83 142 0 91 74 165 166 165 92 0 166-74 166-165 0-61-33-114-83-142l21-36c62 36 104 102 104 178 0 113-94 206-208 206z"/>
<glyph glyph-name="ios-home" unicode="&#85;" d="M256 400l-160-128 0-208 112 0 0 128 96 0 0-128 112 0 0 208z m0 48l-96-77 0 45-64 0 0-96-32-25 12-12 180 145 180-145 12 12z"/>
<glyph glyph-name="ios-game-controller-b" unicode="&#86;" d="M135 307c-11 0-19-8-19-19 0-11 8-19 19-19 11 0 19 8 19 19 0 11-8 19-19 19z m331-44c-21 89-43 136-88 149-10 3-18 4-26 4-28 0-47-15-96-15-49 0-69 15-96 15-8 0-16-1-26-4-45-13-67-60-88-149-21-88-18-152 7-164 5-2 9-3 13-3 22 0 45 24 68 52 25 32 32 33 110 33l24 0c78 0 85-1 110-33 23-28 46-52 68-52 4 0 8 1 13 3 25 12 28 76 7 164z m-331-15c-21 0-39 18-39 40 0 22 18 40 39 40 22 0 39-18 39-40 0-22-17-40-39-40z m173 20c-11 0-20 9-20 20 0 11 9 20 20 20 11 0 20-9 20-20 0-11-9-20-20-20z m44-44c-11 0-20 9-20 20 0 11 9 20 20 20 11 0 20-9 20-20 0-11-9-20-20-20z m0 88c-11 0-20 9-20 20 0 11 9 20 20 20 11 0 20-9 20-20 0-11-9-20-20-20z m44-44c-11 0-20 9-20 20 0 11 9 20 20 20 11 0 20-9 20-20 0-11-9-20-20-20z"/>
<glyph glyph-name="browser" unicode="&#87;" d="M504 446l-496 0c-4 0-8-3-8-8l0-364c0-5 4-8 8-8l496 0c4 0 8 3 8 8l0 364c0 5-4 8-8 8z m-9-16l0-61-478 0 0 61z m-478-348l0 270 478 0 0-270z m146 242l-97 0c-5 0-9-4-9-8 0-5 4-8 9-8l97 0c5 0 8 3 8 8 0 4-3 8-8 8z m0-39l-97 0c-5 0-9-4-9-9 0-4 4-8 9-8l97 0c5 0 8 4 8 8 0 5-3 9-8 9z m0-40l-97 0c-5 0-9-3-9-8 0-5 4-8 9-8l97 0c5 0 8 3 8 8 0 5-3 8-8 8z m0-39l-97 0c-5 0-9-4-9-9 0-4 4-8 9-8l97 0c5 0 8 4 8 8 0 5-3 9-8 9z m0-40l-97 0c-5 0-9-3-9-8 0-5 4-8 9-8l97 0c5 0 8 3 8 8 0 5-3 8-8 8z m0-39l-97 0c-5 0-9-4-9-8 0-5 4-9 9-9l97 0c5 0 8 4 8 9 0 4-3 8-8 8z m142 79l-98 0c-4 0-8-4-8-9 0-4 4-8 8-8l98 0c4 0 8 4 8 8 0 5-4 9-8 9z m0-40l-98 0c-4 0-8-3-8-8 0-5 4-8 8-8l98 0c4 0 8 3 8 8 0 5-4 8-8 8z m0-39l-98 0c-4 0-8-4-8-8 0-5 4-9 8-9l98 0c4 0 8 4 8 9 0 4-4 8-8 8z m0 197l-98 0c-4 0-8-4-8-8l0-79c0-5 4-8 8-8l98 0c4 0 8 3 8 8l0 79c0 4-4 8-8 8z m-9-79l-80 0 0 63 80 0z m150 0l-97 0c-5 0-8-3-8-8 0-5 3-8 8-8l97 0c5 0 9 3 9 8 0 5-4 8-9 8z m0 40l-97 0c-5 0-8-4-8-9 0-4 3-8 8-8l97 0c5 0 9 4 9 8 0 5-4 9-9 9z m0 39l-97 0c-5 0-8-4-8-8 0-5 3-8 8-8l97 0c5 0 9 3 9 8 0 4-4 8-9 8z m0-118l-97 0c-5 0-8-4-8-9l0-78c0-5 3-9 8-9l97 0c5 0 9 4 9 9l0 78c0 5-4 9-9 9z m-8-79l-81 0 0 62 81 0z m-321 249l353 0c5 0 8 3 8 8l0 31c0 4-3 8-8 8l-353 0c-4 0-8-4-8-8l0-31c0-5 4-8 8-8z m9 31l336 0 0-15-336 0z m-90-16c2 0 4 1 6 2 1 2 2 4 2 6 0 3-1 5-2 6-2 2-4 3-6 3-2 0-5-1-6-3-2-1-3-3-3-6 0-2 1-4 3-6 1-1 4-2 6-2z m27 0c2 0 4 1 5 2 2 2 3 4 3 6 0 3-1 5-3 6-1 2-3 3-5 3-3 0-5-1-6-3-2-1-3-3-3-6 0-2 1-4 3-6 1-1 3-2 6-2z m26 0c3 0 5 1 6 2 2 2 3 4 3 6 0 3-1 5-3 6-1 2-3 3-6 3-2 0-4-1-5-3-2-1-3-3-3-6 0-2 1-4 3-6 1-1 3-2 5-2z"/>
<glyph glyph-name="envelope" unicode="&#88;" d="M497 449c8 0 15-6 15-14l0-358c0-8-7-14-15-14l-483 0c-8 0-14 6-14 14l0 358c0 8 6 14 14 14l16 0c153 0 306 0 460 0z m-241-201l109 95 90 77-8 0c-125 0-250 0-376 0l-14 0 89-77z m128 73l-118-103c-6-5-14-5-20 0l-119 103-98 85 0-300 98 85 56 48c6 5 15 5 20-2 5-6 5-15-1-20l-56-48-89-77 398 0-90 77-55 48c-6 5-6 14-1 20 5 7 14 7 20 2l55-48 99-85 0 300z"/>
<glyph glyph-name="telephone" unicode="&#89;" d="M495 142c-22 21-43 43-64 63-12 12-25 17-39 17-13 0-27-5-38-17l-3-2c-11-12-23-23-34-35-2 1-5 2-7 4-5 2-10 5-14 7-34 22-66 50-96 87-15 19-25 35-32 51 10 10 20 20 29 29 3 3 5 5 8 8 23 23 23 54 0 78-8 7-15 14-22 21-3 4-6 7-10 10-3 3-6 7-10 10-7 7-14 15-22 22-11 11-24 17-38 17-14 0-27-6-38-17-6-5-11-11-16-16-8-8-16-16-24-23-15-14-23-32-25-53-2-33 7-63 15-85 19-51 48-99 88-147 51-60 111-107 180-141 38-19 71-28 103-30 2 0 5 0 7 0 27 0 49 10 65 28 8 8 15 16 24 24 4 4 8 8 12 12 24 24 24 54 1 78z m-21-58c-4-4-8-8-12-12-8-8-17-16-25-25-12-14-28-20-49-18-28 1-57 10-92 26-65 32-123 77-171 134-38 45-65 91-83 138-11 29-15 52-13 73 1 14 6 26 16 35 8 8 16 16 24 24 5 5 10 10 16 16 4 4 10 8 18 8 8 0 14-4 18-8 8-8 15-15 22-22 4-4 7-7 10-10 3-4 7-7 10-10 7-7 14-14 21-21 13-13 13-26 0-38-2-3-5-5-7-8-10-10-21-21-32-31-5-5-10-14-5-26 8-20 20-39 38-61 32-39 65-70 102-93 6-4 12-6 17-9 4-2 7-3 10-5 4-2 7-3 11-3 6 0 12 3 17 8 12 12 24 24 36 36l3 3c4 4 10 9 18 9 8 0 14-5 18-9 21-21 43-42 64-63 12-13 12-26 0-38z"/>
<glyph glyph-name="arrow-right-1" unicode="&#48;" d="M260 113l187 133c3 2 5 6 5 10 0 0 0 0 0 0 0 5-2 9-5 11l-187 132c-4 3-9 4-13 1-4-2-7-6-7-11l0-62-167 0c-8 0-13-6-13-13l0-116c0-7 5-13 13-13l167 0 0-62c0-5 3-9 7-11 4-3 10-2 13 1z"/>
<glyph glyph-name="point-of-interest" unicode="&#90;" d="M416 464c-44 0-88 40-144 35-1 4-4 13-16 13-16 0-16-16-16-16l0-384c0 0 0-16 16-16 16 0 16 16 16 16l0 163c56 5 100-35 144-35 48 0 96 32 96 32l0 224c0 0-48-32-96-32z m-112-305l0-16c101-6 176-28 176-55 0-31-100-56-224-56-124 0-224 25-224 56 0 27 75 49 176 55l0 16c-118-7-208-39-208-79 0-44 115-80 256-80 141 0 256 36 256 80 0 40-90 72-208 79z"/>
<glyph glyph-name="android-radio-button-on" unicode="&#49;" d="M256 360c-57 0-104-47-104-104 0-57 47-104 104-104 57 0 104 47 104 104 0 57-47 104-104 104z m0 104c-114 0-208-94-208-208 0-114 94-208 208-208 114 0 208 94 208 208 0 114-94 208-208 208z m0-374c-92 0-166 74-166 166 0 92 74 166 166 166 92 0 166-74 166-166 0-92-74-166-166-166z"/>
<glyph glyph-name="android-radio-button-off" unicode="&#50;" d="M256 464c-114 0-208-94-208-208 0-114 94-208 208-208 114 0 208 94 208 208 0 114-94 208-208 208z m0-374c-92 0-166 74-166 166 0 92 74 166 166 166 92 0 166-74 166-166 0-92-74-166-166-166z"/>
<glyph glyph-name="line-chart" unicode="&#51;" d="M549 73l0-36-586 0 0 438 37 0 0-402z m-37 357l0-125c0-4-2-6-6-8-3-2-7-1-10 2l-34 35-181-181c-2-2-4-3-7-3-2 0-4 1-6 3l-67 66-119-118-55 54 168 168c1 1 4 2 6 2 3 0 5-1 7-2l66-67 133 133-35 34c-3 3-3 7-2 10 2 4 5 6 9 6l124 0c3 0 5-1 6-3 2-1 3-4 3-6z"/>
<glyph glyph-name="social-html5-outline" unicode="&#55;" d="M64 480l35-403 157-45 157 45 35 403z m319-379l-127-36-127 36-30 347 314 0z m-235 147l167 0-6-64-53-15-54 15-3 39-48 0 6-77 99-28 98 28 14 151-176 0-4 51 184 0 4 50-241 0z"/>
<glyph glyph-name="social-nodejs" unicode="&#56;" d="M256 32c-6 0-12 2-17 5l-53 32c-8 5-4 6-1 7 10 4 14 6 25 12 1 1 3 1 4 0l39-23c2-1 4-1 5 0l156 92c1 1 2 3 2 4l0 187c0 2-1 4-2 5l-156 94c-1 1-3 1-4 0l-155-94c-2-1-3-3-3-5l0-187c0-1 1-3 2-4l40-24c24-12 38 0 38 15l0 183c0 3 2 5 5 5l22 0c3 0 5-2 5-5l0-183c0-33-19-52-49-52-9 0-17 0-37 11l-41 24c-11 7-17 18-17 30l0 190c0 12 6 24 17 30l158 95c10 5 24 5 34 0l158-95c11-6 17-18 17-30l0-190c0-12-6-23-17-30l-158-94c-5-3-11-5-17-5z m49 128c-65 0-84 32-84 59 0 3 2 5 5 5l20 0c2 0 4-2 5-4 3-22 16-31 54-31 33 0 47 10 47 29 0 10-3 18-55 23-44 5-71 15-71 51 0 33 27 52 73 52 46 0 76-14 79-51 0-1-1-2-2-3 0-1-2-2-3-2l-20 0c-3 0-4 2-5 4-4 17-17 23-49 23-37 0-41-13-41-22 0-12 5-16 54-23 49-6 72-16 72-51 0-36-29-59-79-59z"/>
<glyph glyph-name="social-css3-outline" unicode="&#57;" d="M355 145l-99-28-98 28-7 78 48 0 4-40 53-15 0 0 0 0 54 15 5 64-112 0-4 50 121 0 4 51-184 0-4 49 241 0z m-291 335l35-403 157-45 157 45 35 403z m319-379l-127-36-127 36-30 347 314 0z"/>
<glyph glyph-name="social-angular-outline" unicode="&#33;" d="M256 448l188-69-39-230-149-80-149 80-39 230 188 69m0 32l-224-80 46-272 178-96 178 96 46 272z m88-320l40 0-128 280-128-280 40 0 27 56 122 0z m-130 96l42 89 42-89z"/>
<glyph glyph-name="database-streamline" unicode="&#52;" d="M256 491c-120 0-213-43-213-96l0-278c0-54 93-96 213-96 120 0 213 42 213 96l0 278c0 53-93 96-213 96z m192-278c0-44-101-74-192-74-91 0-192 30-192 74l0 54c34-32 106-54 192-54 86 0 158 22 192 54z m0 96c0-44-101-74-192-74-91 0-192 30-192 74l0 43c34-32 106-53 192-53 86 0 158 21 192 53z m-192 160c91 0 192-30 192-74 0-44-101-75-192-75-91 0-192 31-192 75 0 44 101 74 192 74z m0-426c-91 0-192 30-192 74l0 54c34-32 106-54 192-54 86 0 158 22 192 54l0-54c0-44-101-74-192-74z"/>
<glyph glyph-name="cloud-upload-1" unicode="&#53;" d="M256 320l-96-96 64 0 0-160 64 0 0 160 64 0z m160 32c-4 0-9-1-13-1-24 57-81 97-147 97-66 0-123-40-147-97-4 0-9 1-13 1-53 0-96-43-96-96 0-53 43-96 96-96 10 0 20 2 29 5 17-19 41-31 67-35l0 32c-25 6-46 22-56 44-11-9-25-14-40-14-35 0-64 29-64 64 0 35 29 64 64 64 13 0 24-4 34-10 11 60 63 106 126 106 63 0 115-46 125-106 10 6 22 10 35 10 35 0 64-29 64-64 0-35-29-64-64-64-5 0-10 1-15 2-14-21-38-34-65-34-6 0-11 1-16 2l0-32c5-1 11-2 16-2 31 0 58 12 79 32 0 0 0 0 1 0 53 0 96 43 96 96 0 53-43 96-96 96z"/>
<glyph glyph-name="comments" unicode="&#54;" d="M402 293c0-27-9-51-27-74-17-22-42-40-73-53-31-13-64-20-101-20-16 0-33 2-50 5-24-17-50-29-80-37-6-1-15-3-24-4l-1 0c-2 0-4 0-6 2-2 2-3 4-3 6 0 1 0 1 0 2 0 1 0 1-1 2 0 0 1 1 1 1l1 2 1 1 1 2 1 1 1 2c1 1 3 3 7 7 3 3 6 6 7 8 2 2 4 5 7 8 2 4 5 8 7 11 2 4 4 8 6 13-24 14-42 31-56 51-14 20-20 41-20 64 0 26 9 51 27 73 17 22 42 40 73 53 31 13 64 20 101 20 36 0 70-7 101-20 31-13 55-31 73-53 18-22 27-47 27-73z m110-74c0-22-7-44-20-64-14-20-32-36-56-50 2-5 4-9 6-13 2-4 4-7 7-11 3-3 5-6 6-8 2-2 4-5 8-8 3-4 5-6 6-8 1 0 1 0 2-1 0-1 1-1 1-1 0-1 1-1 1-2 0 0 1-1 1-1l1-2 0-1 0-2 0-2c0-3-2-5-4-6-1-2-4-3-6-2-9 1-18 2-24 4-30 8-56 20-80 37-17-3-34-5-50-5-52 0-97 13-135 38 11-1 19-1 25-1 31 0 60 4 88 13 29 8 54 20 76 36 24 18 42 38 55 61 12 23 19 47 19 73 0 14-2 29-7 43 25-14 44-30 59-51 14-20 21-42 21-66z"/>
<glyph glyph-name="comments-o" unicode="&#34;" d="M201 402c-29 0-56-5-82-15-25-9-45-23-60-40-15-17-22-35-22-54 0-16 5-31 15-46 10-14 24-27 42-37l28-16-10-24c6 4 12 7 18 11l12 9 15-3c15-3 30-4 44-4 29 0 57 5 82 15 25 10 45 23 60 40 15 17 23 35 23 55 0 19-8 37-23 54-15 17-35 31-60 40-25 10-53 15-82 15z m0 37c37 0 70-7 101-20 31-13 56-31 73-53 18-22 27-47 27-73 0-27-9-51-27-74-17-22-42-40-73-53-31-13-64-20-101-20-16 0-33 2-50 5-24-17-50-29-80-37-6-1-15-3-24-4l-1 0c-2 0-4 0-6 2-2 2-3 4-3 6 0 1 0 1 0 2 0 1 0 1-1 2 0 0 1 1 1 1l1 2 1 1 1 2 1 1 1 2c1 1 3 3 7 7 3 3 6 6 7 8 2 2 4 5 7 8 2 4 5 8 7 11 2 4 4 8 6 13-24 14-42 31-56 51-14 20-20 41-20 64 0 26 9 51 27 73 17 22 42 40 73 53 31 13 64 20 101 20z m235-334c2-5 4-9 6-13 2-4 4-7 7-11 3-3 5-6 6-8 2-2 4-5 8-8 3-4 5-6 6-8 1 0 1 0 2-1 0-1 1-1 1-1 0-1 1-1 1-2 0 0 1-1 1-1l1-2 0-1 0-2 0-2c0-3-2-5-4-6-1-2-4-3-6-2-9 1-18 2-24 4-30 8-56 20-80 37-17-3-34-5-50-5-52 0-97 13-135 38 11-1 19-1 25-1 31 0 60 4 88 13 29 8 54 20 76 36 24 18 42 38 55 61 12 23 19 47 19 73 0 14-2 29-7 43 25-14 44-30 59-51 14-20 21-42 21-66 0-22-7-44-20-64-14-20-32-36-56-50z"/>
<glyph glyph-name="printer" unicode="&#35;" d="M468 353l-44 0 0 0c0 20-16 35-35 35l-1 0 0 80c0 5-4 9-8 9l-248 0c-4 0-8-4-8-9l0-80-1 0c-19 0-35-15-35-35l0 0-44 0c-24 0-44-20-44-44l0-195c0-24 20-43 44-43l44 0c0 0 0 0 0 0l0-1c0-19 16-35 35-35l266 0c19 0 35 16 35 35l0 1 44 0c24 0 44 19 44 43l0 195c0 24-20 44-44 44z m-80 19l1 0c10 0 18-9 18-19l0 0-19 0z m-248 8c0 0 0 0 0 0 0 0 0 0 0 0l0 80 232 0 0-80c0 0 0 0 0 0 0 0 0 0 0 0l0-27-232 0z m-35-27c0 10 8 19 18 19l1 0 0-19-19 0z m-35-17l372 0 0-89c0-10-8-18-18-18l-336 0c-10 0-18 8-18 18z m18-178l-9 0c-5 0-9 4-9 10 0 5 4 9 9 9l9 0z m319-8c0 0 0 0 0 0 0 0 0 0 0 0l0-80c0-10-8-18-18-18l-266 0c-10 0-18 8-18 18l0 107 19 0 0-98c0-5 4-8 8-8l248 0c4 0 8 3 8 8l0 98 19 0z m-267-63l0 90 232 0 0-90z m355 27c0-14-12-27-27-27l-44 0 0 55 9 0c14 0 26 11 26 26 0 14-12 26-26 26l-354 0c-14 0-26-12-26-26 0-15 12-26 26-26l9 0 0-55c0 0 0 0 0 0l-44 0c-15 0-27 13-27 27l0 195c0 15 12 27 27 27l9 0 0-89c0-19 16-35 35-35l336 0c19 0 35 16 35 35l0 89 9 0c15 0 27-12 27-27z m-71 44l0 19 9 0c5 0 9-4 9-9 0-6-4-10-9-10z m-310 90c15 0 26 11 26 26 0 14-11 26-26 26-14 0-26-12-26-26 0-15 12-26 26-26z m0 35c6 0 10-4 10-9 0-5-4-10-10-10-5 0-9 5-9 10 0 5 4 9 9 9z m54-18l17 0c5 0 9 4 9 9 0 4-4 8-9 8l-17 0c-5 0-9-4-9-8 0-5 4-9 9-9z m53 0l17 0c5 0 9 4 9 9 0 4-4 8-9 8l-17 0c-5 0-9-4-9-8 0-5 4-9 9-9z m123-107l-176 0c-5 0-9-4-9-8 0-5 4-8 9-8l176 0c5 0 9 3 9 8 0 4-4 8-9 8z m0-35l-176 0c-5 0-9-4-9-9 0-4 4-8 9-8l176 0c5 0 9 4 9 8 0 5-4 9-9 9z"/>
<glyph glyph-name="boat" unicode="&#37;" d="M391 51c-26-25-48-25-73 0-38 38-80 38-119 0-26-25-48-25-74 0-39 39-79 39-118 0-2-2-5-4-7-6l0-37c10 4 20 11 29 20 27 27 47 27 74 0 38-37 80-37 118 0 27 26 48 26 74 1 19-19 39-29 59-29 20 0 40 10 60 29 25 25 47 25 73-1 8-8 17-13 25-18l0 39c-1 1-2 2-3 2-39 39-80 39-118 0m118 96c-39 39-80 39-118 0-2-2-5-4-7-6l0 83 46 46c4 4 5 9 4 15-1 5-5 9-11 11l-39 13 0 107-32 0 0 32-64 0 0 48c0 9-7 16-16 16l-32 0c-9 0-16-7-16-16l0-48-64 0 0-32-32 0 0-107-39-13c-6-2-10-6-11-11-1-6 0-11 4-15l46-46 0-79c-1 1-2 2-3 2-39 39-79 39-118 0-2-2-5-4-7-6l0-37c10 4 20 11 29 20 27 27 47 27 74 0 38-37 80-37 118 0 2 2 3 3 4 4 24 21 43 21 66 0 1-1 3-2 4-3 19-19 39-29 59-29 20 0 40 10 60 29 25 25 46 25 73-1 8-8 17-13 25-18l0 39c-1 1-2 2-3 2m-157 173l-96 32-96-32 0 64 32 0 0 32 128 0 0-32 32 0z"/>
<glyph glyph-name="barbell" unicode="&#38;" d="M464 320c-11 0-16-19-16-43l0-42c0-24 5-43 16-43 12 0 17 19 17 43l31 0 0 42-31 0c0 24-5 43-17 43z m-80 64c-21 0-21-19-21-43l0-64-214 0 0 64c0 24 0 43-21 43-23 0-43-19-43-43l0-170c0-24 20-43 43-43 21 0 21 19 21 43l0 64 214 0 0-64c0-24 0-43 21-43 23 0 43 19 43 43l0 170c0 24-20 43-43 43z m-336-64c11 0 16-19 16-43l0-42c0-24-5-43-16-43-12 0-17 19-17 43l-31 0 0 42 31 0c0 24 5 43 17 43z"/>
<glyph glyph-name="birthday-cake" unicode="&#39;" d="M512 110l0-110-512 0 0 110c9 0 17 1 24 4 8 2 14 5 17 8 4 2 8 6 14 10 5 5 10 9 14 11 4 2 10 3 16 3 7 0 12-1 16-3 4-2 9-6 15-11 6-4 10-8 14-11 3-2 9-5 16-7 8-3 16-4 25-4 8 0 17 1 24 4 8 3 13 5 17 8 3 2 8 6 13 10 4 4 8 6 10 8 2 2 5 3 9 4 3 2 7 2 12 2 7 0 12-1 16-3 4-2 9-6 15-11 5-4 10-8 13-10 4-3 10-6 17-8 8-3 16-4 24-4 9 0 17 1 25 4 7 2 13 5 17 8 3 2 8 6 13 10 6 5 11 9 15 11 4 2 9 3 16 3 6 0 12-1 16-3 4-2 9-6 14-11 6-4 10-8 14-10 3-3 9-6 17-8 7-3 15-4 24-4z m0 91l0-55c-7 0-12 1-16 3-4 3-9 6-15 11-5 5-10 9-13 11-4 3-9 5-17 8-7 3-16 4-24 4-9 0-17-1-25-4-7-3-13-5-16-8-4-2-8-6-14-11-4-3-7-6-9-7-2-2-5-3-9-5-4-1-8-2-13-2-6 0-12 1-16 3-4 3-9 6-14 11-6 5-10 9-14 11-3 3-9 5-16 8-8 3-16 4-25 4-9 0-17-2-24-4-8-3-13-6-17-8-3-2-8-6-14-11-4-3-7-6-9-7-2-2-5-3-9-5-3-1-8-2-12-2-7 0-12 1-16 3-4 3-9 6-15 11-5 5-10 8-13 11-4 3-10 5-17 8-8 3-16 4-25 4-8 0-17-1-24-4-8-3-13-5-17-8-3-2-8-6-13-11-6-5-11-8-15-11-4-2-9-3-16-3l0 55c0 15 5 28 16 39 11 11 24 16 39 16l18 0 0 128 73 0 0-128 73 0 0 128 74 0 0-128 73 0 0 128 73 0 0-128 18 0c15 0 28-5 39-16 11-11 16-24 16-39z m-366 247c0-15-3-26-10-34-7-8-16-12-26-12-10 0-19 4-26 11-7 7-11 16-11 26 0 5 1 10 3 14 2 5 4 8 7 10 2 2 5 5 8 8 4 3 7 6 9 9 3 3 5 7 7 13 2 5 3 12 3 19 7 0 15-7 23-21 9-14 13-29 13-43z m147 0c0-15-4-26-11-34-7-8-15-12-26-12-10 0-19 4-26 11-7 7-11 16-11 26 0 5 1 10 3 14 2 5 4 8 7 10 3 2 5 5 9 8 3 3 6 6 9 9 2 3 4 7 6 13 2 5 3 12 3 19 7 0 15-7 24-21 8-14 13-29 13-43z m146 0c0-15-4-26-10-34-7-8-16-12-27-12-10 0-18 4-26 11-7 7-10 16-10 26 0 5 1 10 2 14 2 5 4 8 7 10 3 2 6 5 9 8 3 3 6 6 9 9 3 3 5 7 7 13 1 5 2 12 2 19 8 0 15-7 24-21 9-14 13-29 13-43z"/>
<glyph glyph-name="futbol-o" unicode="&#40;" d="M174 279l82 59 82-59-31-96-102 0z m82 233c35 0 68-7 99-20 32-14 59-32 82-55 23-23 41-50 55-82 13-31 20-64 20-99 0-35-7-68-20-99-14-32-32-59-55-82-23-23-50-41-82-55-31-13-64-20-99-20-35 0-68 7-99 20-32 14-59 32-82 55-23 23-41 50-55 82-13 31-20 64-20 99 0 35 7 68 20 99 14 32 32 59 55 82 23 23 50 41 82 55 31 13 64 20 99 20z m177-386c28 39 42 82 42 130l0 1-29-26-68 64 18 93 38-4c-29 40-66 66-111 81l15-36-82-45-82 45 15 36c-45-15-82-41-111-81l39 4 17-93-68-64-29 26 0-1c0-48 14-91 42-130l9 38 93-11 40-86-34-19c23-8 46-11 69-11 23 0 46 3 69 11l-34 19 40 86 93 11z"/>
<glyph glyph-name="heartbeat" unicode="&#41;" d="M366 219l87 0c-1-1-2-2-3-3-1 0-2-1-3-2l0-1-178-171c-4-4-8-5-13-5-5 0-9 1-13 5l-178 172c-1 0-3 2-6 5l106 0c4 0 8 2 11 4 3 3 5 6 6 10l20 80 55-190c1-4 3-7 6-10 3-2 7-3 11-3 4 0 8 1 11 3 3 3 6 6 7 10l41 138 16-32c4-6 9-10 17-10z m146 123c0-28-10-56-29-86l-106 0-32 63c-1 3-4 6-7 8-3 2-7 3-10 2-9-1-14-5-16-13l-37-123-56 196c-1 4-4 7-7 10-3 2-7 3-11 3-4 0-8-1-11-4-4-2-6-5-7-9l-33-133-121 0c-19 30-29 58-29 86 0 42 12 74 36 98 24 24 58 35 101 35 11 0 23-2 36-6 12-4 23-9 34-16 11-7 20-14 27-20 8-6 15-12 22-19 7 7 14 13 22 19 7 6 16 13 27 20 11 7 22 12 34 16 13 4 25 6 36 6 43 0 77-11 101-35 24-24 36-56 36-98z"/>
<glyph glyph-name="airplane" unicode="&#42;" d="M473 192l-185 136 0 88c0 24-24 96-48 96-24 0-48-72-48-96l0-88-185-136c-5-3-7-8-7-13l0-3c0-5 2-10 6-13 4-3 9-4 14-3l172 47 0-134-57-41c-4-3-7-8-7-14l0-2c0-5 2-10 6-13 4-3 10-4 14-2l92 31 92-31c4-1 10 0 14 3 4 3 6 7 6 12l0 3c0 5-3 10-7 13l-57 41 0 134 172-47c5-1 10 0 14 3 4 3 6 8 6 13l0 3c0 5-2 10-7 13"/>
<glyph glyph-name="bus" unicode="&#43;" d="M496 352l-16 0 0-96 16 0c9 0 16 7 16 16l0 64c0 9-7 16-16 16m-144 128l-192 0c-53 0-96-43-96-96l0-288c0-18 14-32 32-32l0-32c0-18 14-32 32-32l32 0c18 0 32 14 32 32l0 32 128 0 0-32c0-18 14-32 32-32l32 0c18 0 32 14 32 32l0 32c18 0 32 14 32 32l0 288c0 53-43 96-96 96m-160-32l128 0 0-32-128 0z m-64-352c-18 0-32 14-32 32 0 18 14 32 32 32 18 0 32-14 32-32 0-18-14-32-32-32m256 0c-18 0-32 14-32 32 0 18 14 32 32 32 18 0 32-14 32-32 0-18-14-32-32-32m32 96l-320 0 0 192 320 0z m-416 144l0-64c0-9 7-16 16-16l16 0 0 96-16 0c-9 0-16-7-16-16"/>
<glyph glyph-name="beer" unicode="&#44;" d="M416 352l-32 0 0 16c15 3 32 24 32 48 0 35-29 64-64 64-16 0-31-6-42-16-13 10-29 16-46 16-16 0-30-5-42-14-10 9-23 14-37 14-17 0-32-8-43-20-12 12-28 20-46 20-35 0-64-29-64-64 0-16 6-31 16-42 0-1 0-1 0-1l0-54c0-27 22-48 48-48l0-223c0-9 7-16 16-16l256 0c9 0 16 7 16 16l0 80 32 0c35 0 64 29 64 64l0 96c0 35-29 64-64 64z m-88-144c-2 0-3 1-4 1-3 2-4 4-4 7l0 48c0 4 4 8 8 8 4 0 8-4 8-8l0-48c0-5-4-8-8-8z m7 76c-1-2-3-3-5-4-2 0-4 0-6 1-2 1-3 3-4 5 0 2 0 5 2 6 1 2 3 3 5 4 2 0 4 0 6-1 1-2 3-3 3-5 1-2 0-5-1-6z m17 68l0-32-128 0c0 4-3 8-8 8-4 0-8-4-8-8l-80 0 0 41c7 3 12 8 17 14 1 1 2 3 4 4 1-1 3-2 4-3 9-6 20-10 32-10 6 0 12 1 18 3 13-20 35-33 61-33 22 0 42 10 55 25 6 7 10 14 13 23l20 0z m31 55c-3 5-8 9-15 9l-55 0c0 0-9 1-9-8 0-9-3-17-7-24-8-10-20-16-33-16-15 0-28 8-35 20-1 3-2 5-3 8 0 1-1 2-1 2-2 6-7 10-14 10-4 0-7-1-10-4 0 0 0 0 0 0-3-2-5-4-9-5-2 0-5-1-7-1-8 0-15 4-19 9-10 11-24 7-30 5-6-1-12-11-12-11-1-2-2-4-4-6-6-7-14-11-24-11l0-81c-9 0-16 7-16 16l0 69c-8 5-13 12-15 21-1 2-1 5-1 7 0 17 14 32 32 32 12 0 23-8 30-16 7-7 27-7 34 0 7 8 14 16 25 16 6 0 11-2 16-6 2-2 3-3 5-6 1-1 2-4 3-5 2-4 6-6 11-6 4 0 8 2 11 5 0 1 1 2 2 2 2 3 4 5 6 7 7 6 16 9 25 9 11 0 20-4 27-11 2-2 7-5 14-5 4-1 6 0 8 0 10 1 14 5 16 6 6 6 14 10 23 10 17 0 32-15 32-32 0-3 0-6-1-9z m65-215c0-18-14-32-32-32l-32 0 0 160 32 0c18 0 32-14 32-32z m-272 152c0-5-3-8-8-8-4 0-8 3-8 8 0 4 4 8 8 8 5 0 8-4 8-8z m160 0c0-5-3-8-8-8-4 0-8 3-8 8 0 4 4 8 8 8 5 0 8-4 8-8z"/>
<glyph glyph-name="cup-2" unicode="&#45;" d="M480 128l-448 0c-18 0-32-14-32-32 0-18 14-32 32-32l448 0c18 0 32 14 32 32 0 18-14 32-32 32m-320 32l192 0c35 0 64 29 64 64 53 0 96 43 96 96 0 53-43 96-96 96l0 32-320 0 0-224c0-35 29-64 64-64m320 160c0-35-29-64-64-64l0 128c35 0 64-29 64-64m-352 96l32 0 0-224c-18 0-32 14-32 32z"/>
<glyph glyph-name="cash" unicode="&#46;" d="M0 416l0-256 512 0 0 256z m193-224l-113 0c0 27-21 48-48 48l0 80c35 0 64 29 64 64l97 0c-20-23-33-58-33-96 0-38 13-73 33-96z m105 59c-2-4-6-8-10-11-4-2-9-4-14-5-3-1-6-1-9-2l0-9-18 0 0 9c-3 1-5 1-8 2-6 1-11 4-15 7-4 3-8 6-10 11-2 5-4 11-4 16l20 0c0-3 1-7 2-9 1-3 4-5 6-7 3-2 6-3 9-4l0 35c-2 0-5 1-8 1-5 2-9 3-12 5-3 2-6 4-8 7-1 2-3 4-4 7 0 3-1 5-1 8 0 5 1 10 4 14 2 4 5 7 9 10 4 2 9 4 14 5 2 1 4 1 6 2l0 9 18 0 0-10c2 0 5 0 7-1 5-1 10-4 14-6 4-3 7-7 9-11 2-4 4-8 4-13l-20 0c-1 6-3 10-7 13-2 1-5 2-7 3l0-31c3 0 5-1 8-1 3-1 6-2 7-2 4-1 7-3 10-5 2-2 5-4 7-6 1-3 3-5 4-8 1-3 1-5 1-8 0-6-1-11-4-15z m182-11c-26 0-48-21-48-48l-113 0c20 23 33 58 33 96 0 38-13 73-33 96l97 0c0-35 29-64 64-64z m-352 48c0-18-14-32-32-32-18 0-32 14-32 32 0 18 14 32 32 32 18 0 32-14 32-32z m320 0c0-18-14-32-32-32-18 0-32 14-32 32 0 18 14 32 32 32 18 0 32-14 32-32z m-175-11c-3 1-5 1-8 2l0-31c2 1 3 1 4 1 3 1 6 2 8 4 2 1 3 3 4 5 1 2 1 4 1 6 0 4-1 7-3 9-2 2-4 3-6 4z m-37 44c-1-2-2-4-2-7 0-3 1-6 4-8 2-2 5-4 9-5l0 26c-2 0-4-1-6-2-2-1-4-2-5-4z m-236-193l512 0 0-32-512 0z"/>
<glyph glyph-name="swiss-army-knife" unicode="&#36;" d="M272 123c-3 3-8 3-12 0-3-3-3-9 0-12 5-4 8-11 8-17 0-7-3-13-8-18-4-4-11-7-17-7-7 0-13 3-18 7l-134 134c-3 4-8 4-11 0-3-3-3-8 0-11l134-134c8-8 18-12 29-12 11 0 21 4 29 12 8 8 12 18 12 29 0 11-4 21-12 29z m-44 43l-131 132c-8 7-18 12-29 12-11 0-21-5-29-12-8-8-12-18-12-29 0-11 4-21 12-29 3-3 8-3 11 0 4 3 4 8 0 11-4 5-7 11-7 18 0 6 3 13 7 17 5 5 11 8 18 8 6 0 13-3 17-8l132-131c1-2 3-2 5-2 3 0 5 0 6 2 3 3 3 8 0 11z m284 104c0 2-1 4-2 6l-48 47c-3 3-8 3-11 0l-171-170-136 136 126-4c21-13 41-20 61-20 7 0 14 1 20 3 40 9 61 44 62 45 1 3 1 7-1 10-3 3-7 3-10 2l-9-5c-16-7-35-3-45 11-17 22-47 27-71 13l-7-5-123-4 84 84c1 1 2 2 2 4l11 53c0 3-1 6-3 8-2 2-4 3-7 2l-54-11c-1 0-3-1-4-2l-156-156c-27-27-27-70 0-96l175-175c13-13 30-20 48-20 0 0 188 0 188 0 16 0 30 11 33 26l8 0c5 0 8 4 8 8 0 4-3 8-8 8l-8 0c-3 15-17 26-33 26l-92 0 171 170c1 2 2 4 2 6z m-226 60c16 10 37 6 49-9 11-14 28-22 45-21-8-7-19-13-32-16-21-5-44-1-68 14l0 28z m-34-8l12 0 0-21-12 1z m-16 0l0-20-109 3-5 5 9 9z m-125-1c-4 4-8 6-13 8l101 101c4-3 8-5 12-8z m114 147l-1-7c-1 0-2 1-3 2-1 1-2 2-3 3z m-23-5c1-4 4-8 7-11 4-3 7-6 12-8l-2-8c-10 6-19 15-25 26z m-22-9c2-4 5-8 8-12l-107-107c-6 2-12 2-19 1z m63-412c-14 0-27 5-37 15l-175 175c-20 20-20 53 0 73 10 10 24 15 37 15 13 0 26-5 36-15l175-175c10-9 16-22 16-36 0-14-6-27-16-37-9-10-22-15-36-15z m174 36l14 0c10 0 18-8 18-18 0-10-8-18-18-18l-14 0z m-27 0l10 0 0-36-10 0z m-26 0l10 0 0-36-10 0z m-16 0l0-36-61 0c1 1 3 2 4 4l32 32z m-38 10c2 19-4 39-19 53l10 10 8-8c2-2 4-3 6-3 2 0 4 1 6 3 3 3 3 8 0 11l-8 8 10 10 8-8c1-1 3-2 5-2 3 0 5 1 6 2 3 3 3 8 0 12l-8 8 10 10 8-9c2-1 4-2 6-2 2 0 4 1 6 2 3 4 3 9 0 12l-9 8 10 10 9-8c1-2 3-2 5-2 2 0 4 0 6 2 3 3 3 8 0 11l-8 8 10 10 8-8c1-1 4-2 6-2 2 0 4 1 5 2 3 3 3 9 0 12l-8 8 10 10 8-8c2-2 4-3 6-3 2 0 4 1 6 3 3 3 3 8 0 11l-8 8 10 10 8-8c1-2 3-2 5-2 2 0 5 0 6 2 3 3 3 8 0 11l-8 9 16 15 35-36z"/>
<glyph glyph-name="stats" unicode="&#47;" d="M281 119l-49 0c-5 0-9-3-9-8 0-4 4-8 9-8l49 0c4 0 8 4 8 8 0 5-4 8-8 8z m231-40c0 1 0 1 0 1 0 0 0 0 0 0 0 1 0 1 0 1-1 0-1 0-1 0 0 1 0 1 0 1 0 0 0 0 0 0 0 0-45 86-45 86l0 222c0 5-4 8-8 8-5 0-9-3-9-8l0-216-386 0 0 230c0 13 11 24 24 24l324 0c5 0 8 4 8 8 0 5-3 8-8 8l-324 0c-22 0-41-18-41-40l0-236-45-86c0 0 0 0 0 0 0 0 0 0 0-1 0 0 0 0-1 0 0 0 0 0 0-1 0 0 0 0 0 0 0 0 0 0 0-1 0 0 0 0 0-1l0-16c0-22 18-41 41-41l430 0c23 0 41 19 41 41l0 16c0 1 0 1 0 1z m-453 78l394 0 37-70-468 0z m412-119l-430 0c-14 0-25 11-25 24l0 8 480 0 0-8c0-13-11-24-25-24z m-11 436l24 0-195-195-60 61c-3 3-9 3-12 0l-136-136c-3-3-3-8 0-12 2-1 4-2 6-2 2 0 4 1 6 2l130 130 60-60c4-3 9-3 12 0l201 201 0-24c0-4 3-8 8-8 4 0 8 4 8 8l0 44c0 4-4 8-8 8l-44 0c-4 0-8-4-8-8 0-5 4-9 8-9z"/>
<glyph glyph-name="monitoring" unicode="&#58;" d="M474 442l-436 0c-21 0-38-17-38-38l0-264c0-20 17-37 38-37l123 0-14-16-21 0c-5 0-9-3-9-8 0-5 4-9 9-9l260 0c5 0 9 4 9 9 0 5-4 8-9 8l-21 0-14 16 123 0c21 0 38 17 38 37l0 264c0 21-17 38-38 38z m-457-292l0 244 478 0 0-244z m21 275l436 0c9 0 16-6 19-13l-474 0c3 7 10 13 19 13z m303-338l-170 0 14 16 142 0z m133 33l-436 0c-9 0-16 5-19 13l474 0c-3-8-10-13-19-13z m-38 207c-11 10-28 10-38 0-6-6-8-12-8-20 0-3 1-7 2-11l-70-55c-8 5-17 5-25 0l-70 55c5 10 3 22-5 31-11 10-28 10-39 0-8-9-10-21-5-31l-70-55c-10 6-23 4-32-4-10-11-10-28 0-39 5-5 12-8 19-8 7 0 14 3 19 8 9 8 10 21 6 31l70 55c4-3 8-4 12-4 5 0 9 1 13 4l70-55c-5-10-3-23 5-31 6-5 13-8 20-8 7 0 13 3 19 8 8 8 10 21 5 31l70 55c4-3 8-4 13-4 7 0 14 3 19 8 10 11 10 28 0 39z m-334-116c-4-4-10-4-14 0-3 3-3 10 0 13 2 2 5 3 7 3 3 0 5-1 7-3 4-3 4-10 0-13z m94 90c-4 3-4 9 0 13 1 2 4 3 6 3 3 0 5-1 7-3 4-4 4-10 0-13-4-4-10-4-13 0z m120-90c-3-4-9-4-13 0-4 3-4 10 0 13 2 2 4 3 7 3 2 0 5-1 6-3 4-3 4-10 0-13z m108 90c-4-4-10-4-14 0-2 1-3 4-3 6 0 3 1 5 3 7 2 2 4 3 7 3 2 0 5-1 7-3 3-4 3-10 0-13z"/>
<glyph glyph-name="graphic-design" unicode="&#59;" d="M356 90l-80 80c-2 2-6 3-9 2-4-2-6-5-6-8l0-80c0-5 4-9 9-9l80 0c3 0 6 2 8 6 1 3 0 7-2 9z m-77 3l0 50 50-50z m225 253c-2 3-5 5-8 5l-47 0 0 28c0 5-4 9-9 9l-232 0 0 72c0 5-4 9-8 9l-54 0c-5 0-8-4-8-9l0-72-53 0 0 59c0 5-3 9-8 9l-34 0c-12 0-22-5-30-13-9-8-13-19-13-30l0-287c0 0 0 0 0 0 0-12 4-23 13-31 8-8 18-12 30-12l186 0 0-31c0-5 4-9 9-9l189 0c4 0 7 2 8 5 2 4 1 7-2 10l-24 25 31 0c5 0 9 4 9 8l0 179 47 0c3 0 6 2 8 5 11 22 11 49 0 71z m-349-136l12 0c5 0 8 4 8 9 0 5-3 9-8 9l-12 0 0 23 12 0c5 0 8 4 8 9 0 5-3 9-8 9l-12 0 0 23 12 0c5 0 8 4 8 9 0 5-3 9-8 9l-12 0 0 23 12 0c5 0 8 4 8 9 0 5-3 9-8 9l-12 0 0 23 12 0c5 0 8 4 8 9 0 5-3 9-8 9l-12 0 0 23 12 0c5 0 8 4 8 9 0 5-3 9-8 9l-12 0 0 19 36 0 0-261-36 0z m-130 221c5 5 11 8 18 8l25 0 0-271-25 0c-10 0-19-3-26-8l0 253c0 7 3 13 8 18z m221-371l0 161 161-161z m186 40l-41 0-147 147c-3 3-6 4-9 2-4-1-6-4-6-8l0-141-186 0c-7 0-13 3-18 7-5 5-8 12-8 19l0 0c0 14 12 25 26 25l34 0c5 0 8 4 8 9l0 210 53 0 0-187c0-5 3-9 8-9l54 0c4 0 8 4 8 9l0 187 224 0 0-19-100 0c-2 0-4-1-5-2l-47-32c-3-1-4-4-4-7 0-3 1-5 4-7l47-32c1-1 3-1 5-1l100 0z m-111 224l6 5c4-12 4-25 0-37l-6 4c1 5 2 9 2 14 0 5-1 10-2 14z m-15-14c0-1 0-2 0-4l-6 4 6 4c0-1 0-2 0-4z m148-23l-110 0c1 5 2 10 3 15l111 0c-1-5-2-10-4-15z m-107 32c-1 5-2 10-3 14l110 0c2-4 3-9 4-14z m143-32l-18 0c5 15 5 31 0 46l18 0c6-14 6-31 0-46z"/>
<glyph glyph-name="devices" unicode="&#60;" d="M492 325l0 125c0 19-17 36-36 36l-420 0c-20 0-36-17-36-36l0-254c0-20 16-36 36-36l119 0-14-15-20 0c-5 0-8-4-8-8 0-5 3-9 8-9l117 0 0-80c0-12 9-22 21-22l90 0c12 0 21 10 21 22l0 17 113 0c16 0 29 12 29 28l0 205c0 13-9 23-20 27z m3-27l0-3-193 0 0 3c0 6 6 12 12 12l169 0c7 0 12-6 12-12z m-146-71l-47 0 0 52 193 0 0-167-125 0 0 93c0 12-9 22-21 22z m5-33l-99 0 0 11c0 3 2 5 4 5l90 0c3 0 5-2 5-5z m121 247l0-115-161 0c-16 0-29-13-29-28l0-71-26 0c-12 0-21-10-21-21l-221 0 0 235z m-220-263l99 0 0-103-99 0z m-219 291l420 0c7 0 14-5 17-11l-454 0c3 6 9 11 17 11z m-18-280l220 0 0-12-202 0c-8 0-15 5-18 12z m146-44l14 15 60 0 0-15z m185-102l-90 0c-2 0-4 2-4 5l0 11 99 0 0-11c0-3-2-5-5-5z m134 38l-113 0 0 15 125 0 0-3c0-6-5-12-12-12z"/>
<glyph glyph-name="computing-cloud" unicode="&#61;" d="M438 211c0 0 0 0 0 0 0 32-16 60-39 78 0 3 0 6 0 9 0 52-42 94-94 94-14 0-29-3-42-10-6 22-20 41-39 54-3 1-6 1-8 0-3-1-5-4-5-7l0-94c0-4 4-8 8-8l10 0-29-50-30 50 10 0c4 0 8 4 8 8l0 108c0 4-3 8-7 8-4 0-7 0-10 0-54 0-97-43-97-96 0 0 0 0 0 0-41-1-74-34-74-75 0-42 34-76 75-76l52 0c-9-14-14-31-14-50 0-51 42-93 94-93l86 0c4 0 8 3 8 8l0 98c0 4-4 8-8 8l-10 0 29 50 30-50-10 0c-4 0-8-4-8-8l0-98c0-5 4-8 8-8l105 0c41 0 75 33 75 75 0 41-33 74-74 75z m-363 10c-32 0-59 26-59 59 0 32 27 58 59 58 2 0 5 0 7 0 2 0 4 1 6 2 2 2 3 5 3 7-1 3-1 5-1 8 0 44 36 80 81 80 0 0 0 0 1 0l0-92-16 0c-2 0-5-1-7-4-1-2-1-5 0-8l43-74c2-3 5-5 8-5 2 0 5 2 7 5l43 74c1 3 1 6 0 8-2 3-4 4-7 4l-15 0 0 69c11-12 19-27 22-43 0-3 2-5 5-7 2-1 5 0 7 1 13 8 28 13 43 13 43 0 78-35 78-78-13 6-27 10-42 10-43 0-80-29-92-69-13 6-28 9-42 9-26 0-50-10-67-27z m362-144l-97 0 0 81 16 0c3 0 5 2 7 4 1 3 1 6 0 9l-43 74c-2 3-5 4-8 4-2 0-5-1-7-4l-43-74c-1-3-1-6 0-9 2-2 4-4 7-4l16 0 0-81-78 0c-43 0-78 35-78 77 0 43 35 78 78 78 15 0 30-4 43-13 2-1 5-1 7 0 3 1 5 3 5 6 7 38 40 66 79 66 45 0 81-36 81-80 0-3 0-5-1-8 0-2 1-5 3-6 2-2 4-3 6-3 3 1 5 1 7 1 32 0 59-27 59-59 0-33-27-59-59-59z"/>
<glyph glyph-name="cloud-computing-1" unicode="&#62;" d="M221 70l0 131c0 4-4 8-9 8l-54 0c-5 0-8-4-8-8 0-5 3-8 8-8l46 0 0-123c-15-4-27-18-27-35 0-19 16-35 35-35 20 0 36 16 36 35 0 17-12 31-27 35z m-9-54c-10 0-19 9-19 19 0 11 9 19 19 19 11 0 19-8 19-19 0-10-8-19-19-19z m96 54l0 131c0 4-4 8-8 8l-55 0c-4 0-8-4-8-8 0-5 4-8 8-8l46 0 0-123c-15-4-27-18-27-35 0-19 16-35 36-35 19 0 35 16 35 35 0 17-12 31-27 35z m-8-54c-11 0-19 9-19 19 0 11 8 19 19 19 10 0 19-8 19-19 0-10-9-19-19-19z m147 109c-17 0-31-11-35-27l-17 0 0 103c0 4-4 8-8 8l-55 0c-4 0-8-4-8-8 0-5 4-8 8-8l47 0 0-103c0-5 3-8 8-8l25 0c4-16 18-28 35-28 19 0 35 16 35 36 0 19-16 35-35 35z m0-54c-11 0-19 8-19 19 0 10 8 19 19 19 10 0 19-9 19-19 0-11-9-19-19-19z m46 265c-11 14-26 24-43 29-2 39-18 75-46 102-29 29-67 45-109 45-53 0-103-28-131-74-7 2-14 3-22 3-33 0-62-23-69-55-42-11-73-50-73-95 0-54 44-98 98-98l19 0 0-95-17 0c-4 16-18 27-35 27-19 0-35-16-35-35 0-20 16-36 35-36 17 0 31 12 35 28l25 0c5 0 8 3 8 8l0 111c0 4-3 8-8 8l-27 0c-45 0-82 37-82 82 0 39 28 72 66 80 4 1 6 3 7 7 3 27 26 47 53 47 8 0 15-1 22-4 4-2 8-1 10 3 25 44 71 72 121 72 76 0 138-62 139-137 0-4 2-7 6-8 33-8 56-37 56-70 0-40-33-72-72-72l-5 0c-4 0-8-4-8-8 0-5 4-8 8-8l5 0c48 0 88 39 88 88 0 20-7 39-19 55z m-428-265c-10 0-19 8-19 19 0 10 9 19 19 19 11 0 19-9 19-19 0-11-8-19-19-19z m333 279l0 0c5 0 9 4 9 8-1 14-3 27-8 39-2 5-6 7-11 5-4-2-6-6-4-10 4-11 6-22 6-34 0-4 4-8 8-8z m-29 67c1-1 3-2 6-2 2 0 3 0 5 1 3 3 4 8 1 12-21 26-52 40-86 40-4 0-8-3-8-8 0-4 4-8 8-8 29 0 55-13 74-35z"/>
<glyph glyph-name="cloud-computing" unicode="&#63;" d="M512 281l0 16c0 44-36 80-80 80l-31 0c1 2 1 4 1 6 0 36-29 65-65 65-14 0-27-4-37-12-18 45-61 76-111 76-66 0-119-53-119-119 0-6 1-11 1-17-40-4-71-38-71-79l0-16c0-42 33-76 74-79l0-64-74 0 0-99 65 0 0-23-33 0 0-16 83 0 0 16-34 0 0 23 66 0 0 99-57 0 0 63 158 0 0-63-65 0 0-99 65 0 0-23-33 0 0-16 82 0 0 16-33 0 0 23 65 0 0 99-65 0 0 63 168 0 0-63-67 0 0-99 66 0 0-23-34 0 0-16 83 0 0 16-33 0 0 23 65 0 0 99-64 0 0 65c36 7 64 39 64 78z m-381-159l0-67-115 0 0 67z m182 0l0-67-114 0 0 67z m183 0l0-67-115 0 0 67z m-64 95l-352 0c-35 0-64 29-64 64l0 16c0 32 25 60 57 63l17 2-3 16c-1 6-1 11-1 15 0 57 46 103 103 103 43 0 80-26 96-66l7-19 17 12c8 6 18 9 28 9 27 0 49-22 49-49 0-1 0-1 0-2 0-1 0-2-1-3l-1-17 48 0c35 0 64-29 64-64l0-16c0-35-29-64-64-64z"/>
<glyph glyph-name="blogging" unicode="&#64;" d="M493 476l-75 0 0 28c0 4-4 8-9 8l-306 0c-5 0-9-4-9-8l0-28-75 0c-10 0-19-8-19-19l0-359c0-10 9-19 19-19l179 0 0-63-77 0c-5 0-8-3-8-8 0-4 3-8 8-8l234 0c5 0 8 4 8 8 0 5-3 8-8 8l-41 0 0 63 34 0c4 0 8 4 8 8 0 5-4 8-8 8l-329 0c-1 0-3 2-3 3l0 359c0 2 2 3 3 3l75 0 0-298-52 0c-5 0-8-4-8-8 0-5 3-9 8-9l306 0c4 0 8 4 8 9 0 4-4 8-8 8l-64 0 0 66c0 5-4 9-9 9l-129 0c-4 0-8-4-8-9l0-66-27 0 0 306c0 0 0 28 0 28l290 0 0-75c0-4 4-8 8-8 5 0 9 4 9 8l0 39 75 0c1 0 3-1 3-3l0-359c0-1-2-3-3-3l-22 0c-4 0-8-3-8-8 0-4 4-8 8-8l22 0c10 0 19 9 19 19l0 359c0 11-9 19-19 19z m-195-460l-84 0 0 63 84 0z m-144 204l113 0 0-58-113 0z m293 97c0 1 0 1-1 1 0 0 0 0 0 0 0 0 0 1 0 1 0 0 0 0 0 0 0 0 0 0 0 0l0 0c0 0 0 0 0 0l-29 73c-1 3-4 5-8 5-3 0-6-2-7-5l-29-73c0 0 0 0 0 0 0 0 0 0 0 0 0 0 0 0 0 0 0 0 0-1 0-1-1 0-1 0-1 0 0 0 0 0 0-1 0 0 0 0 0 0 0 0 0 0 0-1l0-279c0-20 17-37 37-37 21 0 38 17 38 37l0 279c0 1 0 1 0 1 0 0 0 0 0 0z m-58-9l41 0 0-233-41 0z m20 59l17-43-33 0z m0-351c-11 0-20 10-20 21l0 21 41 0 0-21c0-11-9-21-21-21z m-263 379l220 0c4 0 8 3 8 8l0 57c0 5-4 8-8 8l-220 0c-4 0-8-3-8-8l0-57c0-5 4-8 8-8z m8 57l204 0 0-41-204 0z m212-74l-220 0c-4 0-8-3-8-8 0-4 4-8 8-8l220 0c4 0 8 4 8 8 0 5-4 8-8 8z m-91-43l-129 0c-4 0-8-4-8-9 0-4 4-8 8-8l129 0c5 0 9 4 9 8 0 5-4 9-9 9z m74 0l-41 0c-4 0-8-4-8-9 0-4 4-8 8-8l41 0c5 0 8 4 8 8 0 5-3 9-8 9z m-74-33l-129 0c-4 0-8-4-8-8 0-5 4-8 8-8l129 0c5 0 9 3 9 8 0 4-4 8-9 8z m73 0l-40 0c-4 0-8-4-8-8 0-5 4-8 8-8l40 0c4 0 8 3 8 8 0 4-4 8-8 8z m-73-33l-129 0c-4 0-8-3-8-8 0-4 4-8 8-8l129 0c5 0 9 4 9 8 0 5-4 8-9 8z m73 0l-40 0c-4 0-8-3-8-8 0-4 4-8 8-8l40 0c4 0 8 4 8 8 0 5-4 8-8 8z"/>
<glyph glyph-name="chat" unicode="&#91;" d="M434 200c46 33 74 84 74 138 0 96-84 174-187 174-61 0-118-27-153-73l-156 0c-4 0-8-4-8-8l0-341c0-4 4-8 8-8l61 0 0-74c0-3 2-6 5-7 1-1 2-1 3-1 2 0 4 1 6 2l82 80 145 0c5 0 8 4 8 8l0 74c15 0 31 2 45 5l82-31c1 0 2 0 3 0 2 0 5 1 6 3 2 2 3 6 1 9z m-128-102l-141 0c-2 0-4-1-5-2l-71-69 0 63c0 4-3 8-8 8l-61 0 0 325 137 0c-10-17-17-35-20-53l-64 0c-5 0-8-4-8-8l0-26c0-5 3-8 8-8l61 0c1-15 4-30 9-45l-70 0c-5 0-8-3-8-8l0-25c0-5 3-9 8-9l92 0c12-17 28-32 45-44l-137 0c-5 0-8-3-8-8l0-26c0-4 3-8 8-8l181 0c4 0 8 4 8 8l0 10c14-5 29-8 44-9z m-172 256c0-4 0-7 0-10l-53 0 0 10z m16-87c1-3 3-6 5-9l-74 0 0 9z m89-86c3-1 5-2 7-3l0-7-165 0 0 10z m132 4c-2 1-4 1-5 1-15-4-30-6-45-6-2 0-4 0-7 0-19 1-39 5-57 11-4 2-8 4-12 6-29 12-52 32-69 57 0 0 0 0 0 0 0 0 0 0 0 0-5 8-10 16-14 25 0 0 0 0 0 0 0 0 0 0 0 0 0 0 0 0 0 0-8 18-12 37-12 57l0 0 0 1c0 0 0 0 0 1 0 7 0 15 2 22 3 24 12 46 27 66 32 44 85 70 142 70 94 0 171-71 171-158 0-51-27-99-72-129-4-2-5-7-3-10l19-38z m89 215c-2 4-7 5-11 3-4-2-6-7-4-11 10-17 14-35 14-54 0-5 4-8 8-8 5 0 8 3 8 8 0 22-5 43-15 62z m-28 36c-30 28-69 44-111 44-5 0-8-4-8-8 0-5 3-9 8-9 38 0 73-13 100-38 1-2 3-3 5-3 2 0 5 1 6 3 3 3 3 8 0 11z m-120-79c-17 0-32-14-32-32 0-18 15-32 32-32 18 0 32 14 32 32 0 18-14 32-32 32z m0-48c-9 0-16 7-16 16 0 9 7 16 16 16 9 0 16-7 16-16 0-9-7-16-16-16z m86 48c-17 0-32-14-32-32 0-18 15-32 32-32 18 0 32 14 32 32 0 18-14 32-32 32z m0-48c-8 0-15 7-15 16 0 9 7 16 15 16 9 0 16-7 16-16 0-9-7-16-16-16z m-172 48c-18 0-32-14-32-32 0-18 14-32 32-32 17 0 32 14 32 32 0 18-15 32-32 32z m0-48c-9 0-16 7-16 16 0 9 7 16 16 16 8 0 15-7 15-16 0-9-7-16-15-16z"/>
<glyph glyph-name="diamond" unicode="&#93;" d="M510 438l-46 68c-2 2-5 3-7 3l-189 0c-3 0-6-1-7-3l-47-68c-2-3-2-7 0-10l124-162c0 0 0 0 0 0l-44 0c-4 0-7-2-8-6l-26-67c0-1-1-2-1-3l0-75-32 0c-3 0-6-1-8-4l-19-29-160 0c-11 0-21-4-28-12-8-7-12-17-12-28 0-22 18-39 40-39l416 0c5 0 9 3 9 8l0 179c0 1 0 2 0 3l-26 67c-1 4-5 6-8 6l-44 0c0 0 0 0 0 0l123 162c3 3 3 7 0 10z m-251-418l-10 0 0 18c0 5-4 9-9 9-5 0-9-4-9-9l0-18-14 0 0 18c0 5-4 9-9 9-5 0-9-4-9-9l0-18-14 0 0 18c0 5-4 9-9 9-5 0-9-4-9-9l0-18-127 0c-12 0-22 10-22 22 0 6 2 11 6 16 4 4 10 6 16 6l165 0c3 0 6 1 7 4l20 30 27 0z m70 0l-52 0 0 168 23 60 29 0z m111 472l-28-43-33 43z m-46-50l-65 0 33 44z m7-18l-26-95c-9 2-17 2-26 0l-26 95z m-57 68l-32-43-28 43z m-76-7l27-43-56 0z m-28-61l64 0 28-99c-4-2-8-4-12-6z m147-326c5 0 9 4 9 8l0 142 29 0 23-60 0-168-10 0 0 18c0 5-4 9-9 9-5 0-9-4-9-9l0-18-14 0 0 18c0 5-4 9-9 9-5 0-9-4-9-9l0-18-14 0 0 18c0 5-4 9-9 9-5 0-9-4-9-9l0-18-9 0 0 78z m-40 17l0 140 8-12c1 0 1 0 1-1 2-1 4-2 6-2 3 0 6 1 7 3l9 12 0-140z m15 148l-31 41c4 3 9 5 14 6 11 3 23 3 34 0 5-1 10-3 15-6z m43 56c-4 2-9 4-13 6l27 99 66 0z m24 123l28 43 29-43z"/>
<glyph glyph-name="map" unicode="&#94;" d="M512 174l0 165c0 3-2 6-6 7l-76 23c6 15 9 29 9 42 0 56-45 101-100 101-56 0-101-45-101-101 0-13 4-27 9-42l-74-22-163 48c-2 1-5 1-7-1-2-1-3-4-3-6l0-166c0 0 0 0 0 0l0-165c0-3 2-7 6-8l165-49c0 0 0 0 0 0 0 0 0 0 0 0 0 0 1 0 1 0 0 0 0 0 0 0 1 0 1 0 1 0 1 0 1 0 1 0 1 0 1 0 1 0 0 0 0 0 1 0 0 0 0 0 0 0l0 0c0 0 159 48 159 48 1-1 2-1 3-1 2 0 3 0 4 1l159-48c1 0 2 0 3 0 1 0 3 1 5 2 2 1 3 4 3 6l0 165c0 0 0 0 0 1z m-16 158l0-148-149 45 0 23c10 11 52 55 76 102z m-157 164c46 0 84-38 84-85 0-13-4-28-11-43-1 0-1-1-1-2-20-41-58-84-72-99-15 15-53 58-73 99 0 1 0 2-1 2-6 15-11 30-11 43-46-38-84-84-84-84z m-9-244l0-23-148-45 0 148 72 22c24-47 66-91 76-102z m-314-41l57-16c1-1 1-1 2-1 4 0 7 3 8 6 1 5-1 9-6 10l-61 19 0 148 149-45 0-148-56 17c-5 1-9-1-10-5-2-5 1-9 5-11l61-18 0-148-149 44z m331-148l0 59c0 5-4 9-8 9-5 0-9-4-9-9l0-59-148-44 0 148 148 44 0-56c0-4 4-8 9-8 4 0 8 4 8 8l0 56 149-44 0-148z m-8 291c31 0 57 26 57 57 0 32-26 57-57 57-32 0-58-25-58-57 0-31 26-57 58-57z m0 98c22 0 40-18 40-41 0-22-18-41-40-41-23 0-41 19-41 41 0 23 18 41 41 41z"/>
<glyph glyph-name="smartwatch" unicode="&#95;" d="M249 362l-14 0 0 47c0 28-23 50-50 50l-132 0c0 0 0 0 0 0-28 0-50-22-50-50l0-306c0-28 22-50 50-50 0 0 0 0 0 0l0 0 132 0c27 0 50 22 50 50l0 47 14 0c19 0 34 15 34 34l0 144c0 19-15 34-34 34z m-64 78c17 0 30-14 30-31l0-47-113 0 0 47c0 11-3 22-10 31z m-102-78l-7 0c-19 0-35-15-35-34l0-144c0-19 16-34 35-34l7 0 0-47c0-17-13-31-30-31-17 0-31 14-31 31l0 306c0 17 14 31 31 31 8 0 16-4 21-9 6-6 9-14 9-22z m-8-193c-8 1-15 7-15 15l0 144c0 8 7 14 15 15-3-5-4-10-4-15l0-144c0-5 1-10 4-15z m140-66c0-17-13-31-30-31l-93 0c6 9 10 19 10 31l0 47 113 0z m49 81c0-8-7-15-15-15l-143 0c-9 0-16 7-16 15l0 144c0 8 7 15 16 15l143 0c8 0 15-7 15-15z m-152 146c-5 0-9-4-9-9l0-65c0-5 4-10 9-10 5 0 10 5 10 10l0 65c0 5-5 9-10 9z m315-214c-25 24-62 26-89 6l-33 33c-3 3-9 3-13 0-4-4-4-10 0-14l32-32c-20-27-17-65 7-89 13-13 30-20 48-20 18 0 35 7 48 20 26 26 26 69 0 96z m-14-83c-9-9-21-14-34-14-13 0-26 5-35 14-19 19-19 50 0 69 10 10 22 15 35 15 12 0 25-5 34-15 19-19 19-50 0-69z m28 291c-34 0-63-26-67-58l-40 0c-6 0-10-5-10-10 0-5 4-10 10-10l40 0c4-32 33-58 67-58 37 0 68 31 68 68 0 37-31 68-68 68z m0-117c-11 0-22 4-30 10 9 7 19 10 30 10 0 0 0 0 0 0 0 0 0 0 0 0 11 0 21-3 30-10-9-6-19-10-30-10z m-11 51c0 6 5 11 11 11 6 0 11-5 11-11 0-7-5-12-11-12 0 0 0 0 0 0 0 0 0 0 0 0-6 0-11 5-11 12z m53-26c-5 4-10 7-16 9 3 5 4 11 4 17 0 17-13 30-30 30-17 0-31-13-31-30 0-6 2-12 5-17-6-2-11-5-16-9-4 7-7 15-7 24 0 27 22 49 49 49 27 0 49-22 49-49 0-9-3-17-7-24z m-56 260c-13 13-30 20-48 20-18 0-35-7-48-20-13-13-20-30-20-48 0-15 5-29 13-41l-36-36c-4-4-4-10 0-14 2-2 4-3 6-3 3 0 5 1 7 3l37 37c12-9 26-14 41-14 18 0 35 7 48 20 12 13 19 30 19 48 0 18-7 35-19 48z m-14-82c-9-9-21-15-34-15-13 0-26 6-35 15-9 9-14 21-14 34 0 13 5 25 14 35 9 9 22 14 35 14 13 0 25-5 34-14 9-10 14-22 14-35 0-13-5-25-14-34z m-34 46c-6 0-10-4-10-9l0-30c0-5 4-10 10-10 5 0 9 5 9 10l0 30c0 5-4 9-9 9z m18-354l-37 0c-5 0-9-4-9-10 0-5 4-9 9-9l37 0c6 0 10 4 10 9 0 6-4 10-10 10z m0-25l-37 0c-5 0-9-4-9-9 0-5 4-10 9-10l37 0c6 0 10 5 10 10 0 5-4 9-10 9z m0-24l-37 0c-5 0-9-4-9-10 0-5 4-9 9-9l37 0c6 0 10 4 10 9 0 6-4 10-10 10z m-275 176c0-5-5-10-10-10-5 0-9 5-9 10 0 5 4 10 9 10 5 0 10-5 10-10z m266 243c0-6-4-10-9-10-6 0-10 4-10 10 0 5 4 9 10 9 5 0 9-4 9-9z"/>
<glyph glyph-name="web-design" unicode="&#96;" d="M435 512l-234 0c-5 0-9-4-9-9l0-494c0-5 4-9 9-9l234 0c5 0 9 4 9 9l0 494c0 5-4 9-9 9z m-8-495l-218 0 0 443 218 0z m0 460l-218 0 0 18 218 0z m-252-17c5 0 9 4 9 8 0 5-4 9-9 9l-26 0 0 18 26 0c5 0 9 3 9 8 0 5-4 9-9 9l-35 0c-4 0-8-4-8-9l0-494c0-5 4-9 8-9l35 0c5 0 9 4 9 9 0 5-4 8-9 8l-26 0 0 443z m178-389c-4 3-9 3-12 0l-14-14 0 27c0 4-4 8-9 8-5 0-9-4-9-8l0-27-13 14c-4 3-9 3-13 0-3-3-3-9 0-12l29-29c2-2 4-2 6-2 2 0 4 0 6 2l29 29c3 3 3 9 0 12z m-242 389c5 0 9 4 9 8 0 5-4 9-9 9l-26 0 0 18 26 0c5 0 9 3 9 8 0 5-4 9-9 9l-34 0c-5 0-9-4-9-9l0-494c0-5 4-9 9-9l34 0c5 0 9 4 9 9 0 5-4 8-9 8l-26 0 0 443z m151-15c-21 0-37-17-37-38 0-21 16-38 37-38 21 0 38 17 38 38 0 21-17 38-38 38z m0-58c-11 0-20 9-20 20 0 11 9 20 20 20 11 0 21-9 21-20 0-11-10-20-21-20z m141 48l-72 0c-5 0-9-4-9-9 0-5 4-9 9-9l72 0c5 0 8 4 8 9 0 5-3 9-8 9z m0-39l-72 0c-5 0-9-3-9-8 0-5 4-9 9-9l72 0c5 0 8 4 8 9 0 5-3 8-8 8z m0-117l-72 0c-5 0-9-4-9-9 0-5 4-9 9-9l72 0c5 0 8 4 8 9 0 5-3 9-8 9z m0-39l-72 0c-5 0-9-4-9-8 0-5 4-9 9-9l72 0c5 0 8 4 8 9 0 4-3 8-8 8z m-74 87l2 2c4 3 4 9 0 12-3 4-9 4-12 0l-2-2-2 2c-4 4-9 4-13 0-3-3-3-9 0-12l3-2-3-2c-3-4-3-9 0-13 2-1 4-2 7-2 2 0 4 1 6 2l2 3 2-3c2-1 4-2 6-2 2 0 5 1 6 2 4 4 4 9 0 13z m74 9l-49 0c-5 0-9-4-9-9 0-5 4-9 9-9l49 0c5 0 8 4 8 9 0 5-3 9-8 9z m-121 0l-49 0c-5 0-8-4-8-9 0-5 3-9 8-9l49 0c5 0 9 4 9 9 0 5-4 9-9 9z m19-42l-68 0c-5 0-8-4-8-9l0-67c0-5 3-9 8-9l68 0c4 0 8 4 8 9l0 67c0 5-4 9-8 9z m-59-68l0 38 38-38z m50 13l0 0-38 37 38 0z m13-98l-72 0c-5 0-8-4-8-9 0-5 3-9 8-9l72 0c5 0 9 4 9 9 0 5-4 9-9 9z m0 38l-72 0c-5 0-8-4-8-9 0-4 3-8 8-8l72 0c5 0 9 4 9 8 0 5-4 9-9 9z m98 14l-68 0c-4 0-8-4-8-9l0-67c0-5 4-9 8-9l68 0c5 0 8 4 8 9l0 67c0 5-3 9-8 9z m-59-67l0 37 38-37z m50 12l-38 38 38 0z"/>
<glyph glyph-name="dashboard" unicode="&#123;" d="M452 397l43 0c5 0 8 3 8 8 0 5-3 9-8 9l-22 0 36 37c4 3 4 8 0 12-3 3-8 3-12 0l-36-37 0 22c0 5-4 9-9 9-5 0-8-4-8-9l0-43c0-5 3-8 8-8z m-115-95l-41-25c-14-8-30-16-44-23-5-1-10-4-15-7-18-9-27-29-23-48 4-16 16-28 32-32 3-1 7-1 10-1 16 0 31 10 38 24 2 5 5 10 7 15 8 14 15 30 23 44l25 41c2 4 1 7-2 10-2 4-7 4-10 2z m-27-43c-10-16-17-31-24-47-2-5-4-9-7-14-5-11-17-16-29-14-9 2-17 10-19 19-2 12 3 24 14 29 4 3 9 4 14 7 16 8 32 15 46 24l12 7z m183 46c0 1 0 2-1 2-12 31-31 58-54 82 0 0-1 1-1 1-1 0-1 1-1 1-47 46-110 74-180 74-33 0-65-6-95-18 0 0-1 0-1-1-1 0-1 0-2-1-31-12-58-31-82-54 0 0 0-1-1-1 0 0-1-1-1-1-46-47-74-110-74-180 0-58 19-113 55-159 2-2 5-3 7-3l388 0c2 0 5 1 7 3 36 46 55 101 55 159 0 33-6 65-18 95 0 0-1 1-1 1z m-47-241l-379 0c-12 15-22 31-29 48l23 9c5 2 6 7 5 11-2 5-7 6-11 5l-23-10c-9 24-14 48-15 74l60 0c5 0 8 3 8 8 0 5-3 9-8 9l-60 0c1 27 7 52 16 76l23-10c1-1 3-1 4-1 3 0 6 2 7 5 2 5 0 10-4 12l-24 10c11 23 25 43 42 62l18-18c2-2 3-2 6-2 3 0 4 0 6 2 3 4 3 9 0 12l-18 18c19 17 41 32 66 43l9-23c1-4 4-5 8-5 1 0 1 0 3 0 4 2 6 7 4 11l-9 23c23 9 48 14 73 15l0-60c0-5 4-8 9-8 5 0 9 3 9 8l0 60c26-1 52-7 76-16l-10-23c-2-5 0-10 4-11 1-1 3-1 4-1 3 0 7 2 7 5l11 24c23-11 43-25 62-42l-18-18c-3-3-3-8 0-12 2-2 3-2 6-2 2 0 4 0 6 2l18 18c17-19 32-41 43-66l-23-9c-5-2-6-7-5-11 1-4 5-5 8-5 1 0 2 1 3 1l23 9c9-23 14-48 15-73l-60 0c-5 0-8-4-8-9 0-5 3-8 8-8l60 0c-1-27-6-53-16-77l-23 10c-5 2-10 0-11-4-2-5 0-10 4-11l24-11c-7-15-16-30-27-44z"/>
<glyph glyph-name="database-1" unicode="&#124;" d="M90 460c-22 0-39-17-39-39 0-21 17-38 39-38 21 0 38 17 38 38 0 22-17 39-38 39z m0-60c-12 0-22 10-22 21 0 12 10 22 22 22 11 0 21-10 21-22 0-11-10-21-21-21z m345 34c0-5-4-8-8-8-5 0-9 3-9 8 0 5 4 9 9 9 4 0 8-4 8-9z m-34 0c0-5-4-8-8-8-5 0-9 3-9 8 0 5 4 9 9 9 4 0 8-4 8-9z m51-25c0-5-4-9-8-9-5 0-9 4-9 9 0 4 4 8 9 8 4 0 8-4 8-8z m-34 0c0-5-4-9-8-9-5 0-9 4-9 9 0 4 4 8 9 8 4 0 8-4 8-8z m-51 25c0-5-4-8-9-8-4 0-8 3-8 8 0 5 4 9 8 9 5 0 9-4 9-9z m17-25c0-5-4-9-9-9-4 0-8 4-8 9 0 4 4 8 8 8 5 0 9-4 9-8z m-51 25c0-5-4-8-9-8-4 0-8 3-8 8 0 5 4 9 8 9 5 0 9-4 9-9z m17-25c0-5-4-9-9-9-4 0-8 4-8 9 0 4 4 8 8 8 5 0 9-4 9-8z m-51 25c0-5-4-8-9-8-5 0-8 3-8 8 0 5 3 9 8 9 5 0 9-4 9-9z m17-25c0-5-4-9-9-9-5 0-8 4-8 9 0 4 3 8 8 8 5 0 9-4 9-8z m-226-111c-22 0-39-18-39-39 0-21 17-38 39-38 21 0 38 17 38 38 0 21-17 39-38 39z m0-60c-12 0-22 9-22 21 0 12 10 22 22 22 11 0 21-10 21-22 0-12-10-21-21-21z m0-103c-22 0-39-17-39-38 0-21 17-38 39-38 21 0 38 17 38 38 0 21-17 38-38 38z m0-59c-12 0-22 9-22 21 0 12 10 21 22 21 11 0 21-9 21-21 0-12-10-21-21-21z m422 295l0 101c0 21-18 39-39 39l-434 0c-21 0-39-18-39-39l0-101c0-12 6-24 15-31-9-7-15-18-15-31l0-100c0-13 6-24 15-31-9-7-15-18-15-31l0-100c0-22 18-40 39-40l238 0c23-4 48-6 73-6 74 0 152 19 161 56 1 1 1 2 1 4l0 237c0 1 0 2-1 3-3 13-14 23-30 32 18 3 31 19 31 38z m-495-162l0 100c0 13 10 23 22 23l178 0c-15-9-26-19-28-31-1-1-1-2-1-3l0-111-149 0c-12 0-22 10-22 22z m193 52c1 0 1 0 1 0 2-1 3-2 5-3 0 0 1-1 1-1 2-1 4-2 7-3 0 0 0 0 1-1 2 0 3-1 5-2 1 0 2-1 2-1 3-1 5-2 7-2 1 0 1-1 1-1 2 0 5-1 7-2 1 0 2 0 2-1 3 0 5-1 8-2 0 0 0 0 0 0 3 0 6-1 9-2 0 0 1 0 2 0 2-1 5-1 7-2 1 0 1 0 2 0 3-1 6-1 9-2 0 0 1 0 2 0 2 0 5-1 7-1 1 0 2 0 2 0 3-1 6-1 10-1 0 0 1 0 1 0 3-1 6-1 8-1 1 0 2 0 3 0 3-1 6-1 9-1 1 0 1 0 1 0 3 0 6 0 9 0 1 0 1 0 2 0 3 0 7-1 10-1 3 0 6 1 9 1 1 0 2 0 3 0 3 0 5 0 8 0 1 0 1 0 2 0 3 0 6 0 9 1 1 0 2 0 2 0 3 0 6 0 8 1 1 0 1 0 2 0 3 0 6 0 9 1 1 0 2 0 2 0 3 0 5 1 8 1 1 0 1 0 2 0 3 1 6 1 9 2 0 0 1 0 1 0 3 1 5 1 8 2 1 0 1 0 2 0 3 1 6 2 8 2 1 0 1 0 1 0 3 1 5 2 8 2 0 1 1 1 2 1 2 1 4 2 7 2 0 0 0 0 0 1 3 0 5 1 7 2 1 0 2 1 2 1 2 1 4 2 6 2 0 1 1 1 1 1 2 1 4 2 6 3 1 0 1 1 2 1 1 1 3 2 4 3 1 0 1 0 2 0 1 1 3 3 5 4 0 0 0 0 0 0l0-43c0-1 0-2 0-3 0 0 0-1 0-1 0-1 0-2-1-3 0-1 0-2 0-2-1-1-1-2-1-2-1-1-1-2-1-2-1-1-2-2-3-3 0 0 0-1-1-1-18-17-71-33-138-33-67 0-120 16-138 33-1 0-1 1-2 1 0 1-1 2-2 3 0 0-1 1-1 2 0 0-1 1-1 2 0 0-1 1-1 2 0 1 0 2 0 3 0 0 0 1 0 1 0 2 0 3 0 4l0 42c0 0 0 0 0 0 2-1 3-3 5-4z m284-125c-1-1-1-2-1-2-1-1-1-1-2-2 0-1-1-2-2-3 0 0 0 0-1-1-18-17-71-33-138-33-67 0-120 16-139 33 0 1 0 1-1 1 0 1-1 2-2 3 0 1-1 1-1 2 0 0-1 1-1 2 0 0-1 1-1 2 0 1 0 2 0 2l0 1c0 1 0 1 0 2 0 0 0 1 0 2l0 42 0 1c0 0 1 0 1-1 1 0 2-1 3-2 1-1 2-1 3-2 2-1 3-2 5-2 0-1 0-1 0-1 18-9 42-16 69-20 0-1 1-1 1-1 9-1 18-2 27-3 2 0 4 0 5 0 2 0 4 0 6-1 3 0 5 0 8 0 1 0 3 0 4 0 5 0 9 0 13 0 4 0 8 0 12 0 2 0 3 0 5 0 2 0 5 0 8 0 1 1 3 1 5 1 2 0 4 0 6 0 9 1 18 2 27 3 0 0 0 0 0 1 30 4 56 12 75 23 1 1 1 1 2 2 2 1 3 2 4 2 0 1 1 1 1 1l0-42c0-1 0-2 0-3 0-1 0-2 0-2 0-1 0-2-1-3 0-1 0-2 0-2z m-455-111c-12 0-22 10-22 22l0 100c0 13 10 23 22 23l149 0 0-118 2 0c0 0 1 0 1-1 0 0 0-1 1-2 0-1 1-2 2-3 1-2 2-3 3-4 1-1 1-1 2-2 3-3 7-6 11-9 0 0 1 0 1 0 3-3 7-5 10-6l-182 0z m456 38c0 0 0-1 0-1-4-21-63-44-145-44-26 0-50 2-71 6l0 0c-42 8-66 22-72 33 0 0 0 0 0 0-1 1-1 1-1 2 0 1-1 2-1 3l0 49c0 0 1 0 1 0 1-1 2-2 3-3 1 0 2-1 3-2 2 0 3-1 5-2 0 0 0 0 0 0 18-10 42-17 69-21 0 0 1 0 1 0 9-2 18-3 27-4 2 0 4 0 5 0 2 0 4 0 6 0 3-1 5-1 8-1 1 0 3 0 4 0 5 0 9 0 13 0 4 0 8 0 12 0 2 0 3 0 5 0 2 0 5 0 7 1 2 0 4 0 6 0 2 0 4 0 6 0 9 1 18 2 27 4 0 0 0 0 0 0 30 4 56 12 75 23 0 1 1 2 2 2 2 1 3 2 4 3 0 0 1 0 1 0z m0 231c0-21-62-45-145-45-83 0-145 24-145 45 0 1 0 3 0 4 1 1 1 2 2 3 0 0 0 0 0 0 3 5 9 10 17 15 1 0 1 0 1 1 2 0 4 1 5 2 2 1 4 2 6 3 1 0 1 0 2 0 10 4 22 8 35 11 4 1 8 1 13 2 1 0 2 0 3 1 39 6 83 6 121 0 2-1 3-1 4-1 4-1 9-1 13-2 41-9 68-24 68-39z m0 77c0-12-10-22-22-22l-40 0c0 0-1 0-1 0-6 1-12 2-18 3 0 0-1 1-1 1-20 3-42 4-63 4-21 0-43-1-63-4-1 0-1-1-2-1-6-1-11-2-17-3 0 0-1 0-1 0l-228 0c-12 0-22 10-22 22l0 101c0 12 10 22 22 22l434 0c12 0 22-10 22-22z"/>
<glyph glyph-name="dna" unicode="&#125;" d="M224 288c0-6 5-10 10-10l44 0c6 0 11 4 11 10 0 6-5 11-11 11l-44 0c-5 0-10-5-10-11z m-33-32c0-6 4-11 10-11l111 0c5 0 10 5 10 11 0 6-5 10-10 10l-111 0c-6 0-10-4-10-10z m87-22l-44 0c-5 0-10-4-10-10 0-6 5-11 10-11l44 0c6 0 11 5 11 11 0 6-5 10-11 10z m-99 204l154 0c6 0 11 5 11 10 0 6-5 11-11 11l-154 0c-6 0-11-5-11-11 0-5 5-10 11-10z m45-22c-6 0-11-4-11-10 0-6 5-11 11-11l65 0c6 0 11 5 11 11 0 6-5 10-11 10z m-23 65l111 0c5 0 10 4 10 10 0 6-5 11-10 11l-111 0c-6 0-10-5-10-11 0-6 4-10 10-10z m198-54l0 75c0 5-4 10-10 10-6 0-10-5-10-10l0-69-123-79-122 79 0 69c0 5-5 10-11 10-6 0-10-5-10-10l0-75c0-4 1-7 4-9l120-77-120-76c-3-2-4-5-4-9 0-4 1-7 4-9l120-76-120-77c-3-2-4-5-4-9l0-75c0-5 4-10 10-10 6 0 11 5 11 10l0 69 122 79 123-79 0-69c0-5 4-10 10-10 6 0 10 5 10 10l0 75c0 4-1 7-4 9l-120 77 120 76c3 2 4 5 4 9 0 4-1 7-4 9l-120 76 120 77c3 2 4 5 4 9z m-29-171l-114-73-114 73 114 73z m-37-182l-154 0c-6 0-11-5-11-11 0-5 5-10 11-10l154 0c6 0 11 5 11 10 0 6-5 11-11 11z m-44 21c6 0 11 5 11 11 0 6-5 10-11 10l-65 0c-6 0-11-4-11-10 0-6 5-11 11-11z m23-64l-111 0c-6 0-10-5-10-10 0-6 4-11 10-11l111 0c5 0 10 5 10 11 0 5-5 10-10 10z"/>
<glyph glyph-name="group" unicode="&#126;" d="M337 301l0-25c0-6 4-11 10-11 6 0 10 5 10 11l0 25c0 9-4 17-10 22-20 16-41 28-50 33l0 26c4 5 7 12 7 19l0 37c0 25-20 44-44 44l-8 0c-24 0-44-19-44-44l0-37c0-7 3-14 8-19l0-26c-10-5-31-17-51-33-6-5-10-13-10-22l0-25c0-6 4-10 10-10 6 0 11 4 11 10l0 25c0 3 1 5 2 6 23 19 47 31 52 33 4 2 6 6 6 11l0 36c0 3-2 7-4 9-2 1-3 3-3 5l0 37c0 13 10 24 23 24l8 0c13 0 23-11 23-24l0-37c0-2-1-4-3-5-2-2-4-6-4-9l0-36c0-5 2-9 7-11 4-2 28-14 51-33 1-1 3-3 3-6z m98-141c-3-2-4-5-4-9l0-36c0-4 2-9 6-11 5-2 29-14 52-32 1-2 2-4 2-6l0-26c0-6 5-10 11-10 5 0 10 4 10 10l0 26c0 8-4 16-10 22-20 16-41 27-51 33l0 26c5 5 8 11 8 18l0 38c0 24-20 44-44 44l-8 0c-24 0-44-20-44-44l0-38c0-7 3-13 7-18l0-26c-9-6-30-17-50-33-7-6-10-14-10-22l0-26c0-6 4-10 10-10 6 0 10 4 10 10l0 26c0 2 1 4 3 6 23 18 47 30 51 32 4 2 7 7 7 11l0 36c0 4-2 7-5 9-1 1-2 3-2 5l0 38c0 12 10 23 23 23l8 0c13 0 23-11 23-23l0-38c0-2-1-4-3-5z m-253-94l0-26c0-6 4-10 10-10 6 0 10 4 10 10l0 26c0 8-3 16-10 22-20 16-41 27-50 32l0 26c4 5 7 12 7 19l0 38c0 24-20 44-44 44l-8 0c-24 0-44-20-44-44l0-38c0-7 3-14 8-19l0-26c-10-5-31-16-51-32-6-6-10-14-10-22l0-26c0-6 5-10 10-10 6 0 11 4 11 10l0 26c0 2 1 4 3 6 22 18 46 30 51 32 4 2 6 7 6 11l0 36c0 4-1 7-4 9-2 1-3 3-3 5l0 38c0 12 10 23 23 23l8 0c13 0 23-11 23-23l0-38c0-2-1-4-2-5-3-2-5-5-5-9l0-36c0-4 3-9 7-11 4-2 28-14 51-32 2-2 3-4 3-6z m74 51c6 0 10 4 10 10l0 14 1 0c20 0 36 16 36 35 0 20-16 36-36 36l-22 0c-9 0-15 7-15 15 0 8 6 14 15 14l40 0c6 0 10 5 10 11 0 5-4 10-10 10l-19 0 0 14c0 5-4 10-10 10-6 0-10-5-10-10l0-14-1 0c-20 0-36-16-36-35 0-20 16-36 36-36l22 0c9 0 15-7 15-15 0-8-6-15-15-15l-41 0c-6 0-10-4-10-10 0-6 4-10 10-10l20 0 0-14c0-6 4-10 10-10z"/>
<glyph glyph-name="page-quality" unicode="&#92;" d="M495 493l-478 0c-9 0-17-7-17-17l0-402c0-10 8-17 17-17l186 0 0-30c0-6 2-7 4-8 2-1 5-1 8 4l40 56c1 0 1 0 1 0 0 0 0 0 1 0l40-56c2-3 5-4 6-4 1 0 2 0 2 0 2 1 4 2 4 8l0 30 186 0c9 0 17 7 17 17l0 402c0 10-8 17-17 17z m-277-352c-1 0-2 0-3 0-6 2-10 9-14 16-4 7-7 14-13 18-5 4-13 5-21 7-8 1-16 3-19 8-3 4-3 12-1 20 0 8 1 16-1 23-2 6-7 11-12 17-6 6-12 12-12 18 0 6 6 12 12 18 5 6 10 11 12 18 2 7 1 14 1 22-2 8-2 16 1 21 3 4 11 6 19 8 8 1 16 2 21 7 6 4 9 10 13 17 4 7 8 15 14 16 1 1 2 1 3 1 5 0 10-3 17-6 7-3 14-6 21-6 7 0 14 3 21 6 7 3 12 6 17 6 1 0 2 0 3-1 6-1 10-9 14-16 4-7 7-13 13-17 5-5 13-6 21-7 8-2 16-4 19-8 3-5 3-13 1-21 0-8-1-15 1-22 2-7 7-12 12-18 6-6 12-12 12-18 0-6-6-12-12-18-5-6-10-11-12-17-2-7-1-15-1-23 2-8 3-16-1-20-3-5-11-7-19-8-8-2-16-3-21-7-6-4-9-11-13-18-4-7-8-14-14-16-1 0-2 0-3 0-5 0-10 2-17 5-7 3-14 7-21 7-7 0-14-4-21-7-7-3-12-5-17-5z m91-2c4 4 7 9 10 14 3 6 6 12 10 15 4 3 11 4 17 5 10 2 20 4 25 11 6 8 5 18 3 28 0 6-1 13 0 18 2 4 6 9 11 14 6 7 14 15 14 24 0 10-8 17-14 25-5 4-9 9-11 14-1 4 0 11 0 18 2 10 3 20-3 27-5 8-15 9-25 11-6 2-13 3-17 6-4 3-7 9-10 14-5 9-10 18-19 21-2 0-4 1-6 1-7 0-14-4-20-7-6-3-13-6-18-6-5 0-12 3-18 6-6 3-13 7-20 7-2 0-4-1-6-1-9-3-14-12-19-21-3-5-6-11-10-14-4-3-11-4-17-6-10-2-20-3-25-11-6-7-5-17-3-27 0-7 1-14 0-18-2-5-6-10-11-14-6-8-14-15-14-25 0-9 8-17 14-24 5-5 9-10 11-14 1-5 0-12 0-18-2-10-3-20 3-28 5-7 15-9 25-11 6-1 13-2 17-5 4-3 7-9 10-15 3-5 6-10 10-14l0-39-194 0 0 274 86 0c3 0 5 2 5 4 0 3-2 5-5 5l-86 0 0 40 494 0 0-282-103 0c-2 0-4-2-4-5 0-2 2-4 4-4l103 0 0-32-194 0z m-292 345l478 0c4 0 8-3 8-8l0-16-325 0c-2 0-4-2-4-4 0-2 2-4 4-4l325 0 0-20-494 0 0 44c0 5 4 8 8 8z m0-418c-4 0-8 3-8 8l0 17 194 0 0-25z m247 18c-2 3-5 4-8 4-3 0-6-1-8-4l-36-51 0 100c0 0 0 0 0 0 2-1 4-1 6-1 1 0 2 0 3 0l0-37c0-2 2-4 4-4 3 0 5 2 5 4l0 39c3 1 5 3 8 4 6 3 13 6 18 6 5 0 12-3 18-6 6-3 13-6 20-6 2 0 4 0 6 1 0 0 0 0 0 0l0-100z m231-18l-186 0 0 25 194 0 0-17c0-5-4-8-8-8z m-455 376c9 0 16 7 16 16 0 9-7 16-16 16-9 0-16-7-16-16 0-9 7-16 16-16z m0 23c4 0 7-3 7-7 0-4-3-7-7-7-4 0-7 3-7 7 0 4 3 7 7 7z m44-23c9 0 16 7 16 16 0 9-7 16-16 16-8 0-16-7-16-16 0-9 8-16 16-16z m0 23c4 0 8-3 8-7 0-4-4-7-8-7-3 0-7 3-7 7 0 4 4 7 7 7z m45-23c9 0 16 7 16 16 0 9-7 16-16 16-9 0-16-7-16-16 0-9 7-16 16-16z m0 23c4 0 7-3 7-7 0-4-3-7-7-7-4 0-7 3-7 7 0 4 3 7 7 7z m225-197c0 54-44 98-98 98-54 0-98-44-98-98 0-54 44-98 98-98 54 0 98 44 98 98z m-187 0c0 49 40 89 89 89 49 0 89-40 89-89 0-49-40-89-89-89-49 0-89 40-89 89z m154 0c0 36-29 66-65 66-36 0-65-30-65-66 0-36 29-65 65-65 36 0 65 29 65 65z m-111-32l35 0c3 0 5 2 5 4 0 3-2 5-5 5l-40 0c-3 6-5 13-6 21l65 0c2 0 4 2 4 4 0 3-2 5-4 5l-64 0c3 28 27 50 56 50 17 0 32-8 43-20l-42 0c-3 0-5-2-5-4 0-3 2-5 5-5l48 0c5-8 8-18 8-28 0-31-26-56-57-56-19 0-36 9-46 24z"/>
<glyph glyph-name="startup" unicode="&#57344;" d="M188 171c-13 0-25-8-31-19-4 1-8 2-12 2-23 0-43-19-43-43 0-5 4-9 9-9 5 0 8 4 8 9 0 14 12 26 26 26 5 0 9-2 13-4 3-2 6-2 8 0 3 1 5 3 5 6 1 8 8 15 17 15 9 0 16-7 17-16 0-3 3-6 6-7 4-1 7 0 9 3 8 12 22 20 36 20 14 0 28-8 36-20 2-3 5-4 9-3 3 1 6 4 6 7 1 9 8 16 17 16 9 0 16-7 17-15 0-3 2-5 5-6 2-2 5-2 8 0 4 2 8 4 13 4 14 0 26-12 26-26 0-5 3-9 8-9 5 0 9 4 9 9 0 24-20 43-43 43-4 0-8-1-12-2-6 11-18 19-31 19-12 0-22-6-28-16-11 10-25 16-40 16-15 0-29-6-40-16-6 10-16 16-28 16z m102 205c0 18-15 34-34 34-19 0-34-16-34-34 0-19 15-35 34-35 19 0 34 16 34 35z m-34-18c-9 0-17 8-17 18 0 9 8 17 17 17 9 0 17-8 17-17 0-10-8-18-17-18z m-9-93l0-69c0-4 4-8 9-8 5 0 9 4 9 8l0 69c0 4-4 8-9 8-5 0-9-4-9-8z m-221-197c4 0 8 4 8 9l0 256c0 12 13 25 26 25l102 0c5 0 9 4 9 9 0 5-4 9-9 9l-102 0c-22 0-43-21-43-43l0-256c0-5 4-9 9-9z m477 17l-8 0 0 248c0 22-21 43-43 43l-102 0c-5 0-9-4-9-9 0-5 4-9 9-9l102 0c13 0 26-13 26-25l0-256c0-5 4-9 8-9l9 0 0-25c0-13-13-26-26-26l-426 0c-10 0-20 8-24 17l450 0c5 0 9 4 9 9 0 4-4 8-9 8l-460 0c-5 0-9-4-9-8 0-22 21-43 43-43l426 0c22 0 43 21 43 43l0 34c0 5-4 8-9 8z m-349 128c0-4 3-8 8-8l26 0 0-9c0-4 4-8 8-8 5 0 9 4 9 8l0 9 17 0c5 0 8 4 8 8 0 5-3 9-8 9l-51 0 0 8c0 26 8 36 17 47 8 10 17 20 17 39l0 85c0 30 14 45 15 46l36 43 37-44c0 0 14-15 14-45l0-85c0-19 9-29 17-39 9-11 17-21 17-47l0-8-51 0c-5 0-8-4-8-9 0-4 3-8 8-8l17 0 0-9c0-4 4-8 9-8 4 0 8 4 8 8l0 9 26 0c5 0 8 4 8 8l0 17c0 32-12 46-21 58-7 9-13 16-13 28l0 85c0 37-18 57-19 57l-42 51c-4 4-10 4-14 0l-42-51c-1 0-19-20-19-57l0-85c0-12-6-19-13-28-9-12-21-26-21-58l0-17z m17 120c0 5-4 8-9 8l-77 0c-11 0-34-10-34-25l0-239c0-5 4-9 9-9l392 0c5 0 9 4 9 9l0 239c0 13-13 25-26 25l-85 0c-5 0-9-3-9-8 0-5 4-9 9-9l85 0c4 0 9-4 9-8l0-231-376 0 0 230c1 3 12 9 17 9l77 0c5 0 9 4 9 9z"/>
<glyph glyph-name="success" unicode="&#57345;" d="M488 272l0 232c0 3-1 5-4 7-2 1-5 1-7 0l-80-32c-3-1-5-4-5-7 0-3 2-6 5-7l75-30 0-163-8 0c-2 0-4-1-6-2l-142-143-30 31c-3 3-9 3-12 0l-94-95-58 59c-3 3-9 3-12 0l-108-108c-1-2-2-4-2-6l0-8 16 0 0 5 100 100 58-59c3-3 9-3 12 0l94 95 30-31c3-3 9-3 12 0l145 146 45 0 0 16z m-66 200l50 20 0-40z m-408-309c19 20 59 7 84-1 10-3 19-4 28-4 9 0 18 1 26 5l0-51c0-4 4-8 8-8l40 0c4 0 8 4 8 8l0 78c2 2 5 4 10 7 2 1 3 1 5 2 4 2 9 4 14 8 5 3 9 10 10 17l17 0 0-48c0-4 4-8 8-8l40 0c4 0 8 4 8 8l0 64c0 22-18 40-40 40l-48 0 0 24 40 0c22 0 40 18 40 40l0 72c0 4-4 8-8 8l-32 0c-4 0-8-4-8-8l0-64-39 0c4 7 6 15 6 24 0 26-21 48-48 48-26 0-48-22-48-48 0-8 2-16 6-22-27-8-52-26-71-53-9-11-15-25-21-38-2-3-3-7-5-10-4-8-7-16-11-24-8-20-17-41-31-55l0-1c-3-3-3-8 1-11 3-3 8-3 11 1z m138 103l-9 9 9 10z m75-47c-3-2-7-3-11-5-1-1-3-2-5-3-1 0-2-1-3-1l0 14 22 0c0-2-2-4-3-5z m45 117c4 0 8 4 8 8l0 64 16 0 0-64c0-13-11-24-24-24l-48 0c-4 0-8-4-8-8l0-40c0-4 4-8 8-8l56 0c13 0 24-11 24-24l0-56-24 0 0 48c0 4-4 8-8 8l-72 0c-4 0-8-4-8-8l0-112-24 0 0 184c0 3-2 6-5 7-3 2-6 1-9-1l-28-29c-2-1-3-3-3-6 0-2 1-4 3-5l22-23-13-12-23 23c-10 10-10 25 0 34l44 45c8-6 17-9 27-9 1 0 1 0 1 0l0-48 16 0 0 51c3 1 7 3 10 5z m-89 72c18 0 32-14 32-32 0-18-14-32-32-32-17 0-32 14-32 32 0 18 15 32 32 32z m-135-185c4 8 7 16 10 23 2 3 4 7 5 10 6 13 12 25 20 36 10 13 25 30 46 40l-29-28c-15-16-15-41 0-57l30-29c3-3 8-3 11 0l11 11 0-48c-17-10-36-8-50-3-18 6-46 14-70 11 6 11 11 22 16 34z"/>
<glyph glyph-name="user-1" unicode="&#57346;" d="M376 235l49 0c6-18 23-31 43-31 24 0 44 20 44 45 0 24-20 44-44 44-23 0-41-16-44-38l-48 0c-6 0-10-4-10-10 0-6 4-10 10-10z m92 37c13 0 23-10 23-23 0-14-10-24-23-24-14 0-24 10-24 24 0 13 10 23 24 23z m-134 57c2-2 5-3 8-3 2 0 5 1 7 3l32 32c7-5 16-7 25-7 11 0 23 4 31 13 17 17 17 45 0 63-8 8-20 13-31 13-12 0-23-5-32-13-14-15-17-37-7-54l-33-32c-4-4-4-11 0-15z m55 86c4 5 10 7 17 7 6 0 12-2 17-7 9-9 9-24 0-34-5-4-11-7-17-7-7 0-13 3-17 7-10 10-10 25 0 34z m-147 3l0-50c0-5 5-10 11-10 5 0 10 5 10 10l0 48c21 3 37 22 37 44 0 25-19 45-44 45-25 0-44-20-44-45 0-20 13-36 30-42z m14 66c13 0 24-11 24-24 0-13-11-24-24-24-13 0-24 11-24 24 0 13 11 24 24 24z m-212-280c20 0 37 13 43 31l45 0c6 0 10 4 10 10 0 6-4 10-10 10l-44 0c-3 22-21 38-44 38-24 0-44-20-44-44 0-25 20-45 44-45z m0 68c14 0 24-10 24-23 0-14-10-24-24-24-13 0-23 10-23 24-1 13 10 23 23 23z m62 82c8 0 16 2 23 6l32-33c2-2 5-3 8-3 2 0 5 1 7 3 4 4 4 11 0 15l-32 32c11 17 9 40-6 56-9 8-20 13-32 13-12 0-23-5-31-13-18-18-18-46 0-63 8-9 20-13 31-13z m-17 61c5 5 11 7 17 7 7 0 13-2 17-7 10-9 10-24 0-34-4-4-10-7-17-7-6 0-12 3-17 7-9 10-9 25 0 34z m111-234l0-45c-13-7-46-25-78-51-8-7-13-17-13-29l0-38c0-6 4-11 10-11 6 0 10 5 10 11l0 38c0 5 2 10 6 14 35 28 72 46 79 50 4 2 7 6 7 11l0 55c0 3-2 6-5 8-4 3-7 8-7 13l0 56c0 22 19 41 41 41l12 0c22 0 41-19 41-41l0-56c0-5-3-10-7-13-3-2-5-5-5-8l0-55c0-5 3-9 7-11 8-4 45-22 79-50 4-4 6-8 6-14l0-38c0-6 5-11 10-11 6 0 11 5 11 11l0 38c0 12-5 22-14 29-31 26-65 44-78 51l0 45c7 6 11 16 11 26l0 56c0 34-27 61-61 61l-12 0c-34 0-61-27-61-61l0-56c0-10 4-20 11-26z"/>
<glyph glyph-name="graph" unicode="&#57347;" d="M352 384l-96 0 0-320 96 0z m128-96l-96 0 0-224 96 0z m-448-256l0 64 32 0 0 32-32 0 0 64 32 0 0 32-32 0 0 64 32 0 0 32-32 0 0 64 32 0 0 32-32 0 0 64 32 0 0 32-64 0 0-512 512 0 0 32z m192 192l-96 0 0-160 96 0z"/>
<glyph glyph-name="ribbon" unicode="&#57348;" d="M425 370c0 78-64 142-142 142-79 0-142-64-142-142 0-46 22-87 56-113l-110-199 81 21 45-71 50 195 3-203 60 59 74-39-60 220c50 22 85 72 85 130z m-268 0c0 69 56 126 126 126 69 0 126-57 126-126 0-70-57-126-126-126-70 0-126 56-126 126z m50-322l-32 50-56-15 90 164 5-1 0 0c12-7 25-12 39-15z m168 3l-52 27-42-40-2 187 15 3 0 0c11 1 21 3 31 6z m-55 349l-6 1c-6 1-14 7-17 12l-2 5c-7 14-22 14-29 0l-3-5c-2-5-10-11-17-12l-5-1c-8-1-13-5-15-10-1-6 1-12 6-17l4-4c5-4 8-14 7-20l-1-6c-2-7 1-12 3-14 4-6 12-7 20-3l5 3c5 3 16 3 21 0l5-3c3-1 6-2 9-2 5 0 8 1 11 5 2 2 4 7 3 14l-1 6c-1 6 2 16 7 20l4 4c5 5 7 11 5 17-2 5-7 9-14 10z m-7-20c-8-8-13-22-11-34l1-5-5 2c-10 5-26 5-36 0l-5-2 1 5c2 12-2 26-11 34l-4 4 6 1c11 2 24 11 29 21l2 5 3-5c5-10 17-19 29-21l5-1z m83-9c0 63-51 114-114 114-62 0-113-51-113-114 0-62 51-113 113-113 63 0 114 51 114 113z m-114-97c-53 0-97 43-97 97 0 54 44 97 97 97 54 0 98-43 98-97 0-54-44-97-98-97z m-122-149l46 93 15-7-46-93z"/>
<glyph glyph-name="ribbon-b" unicode="&#57349;" d="M256 440c-49 0-88-39-88-88 0-49 39-88 88-88 49 0 88 39 88 88 0 49-39 88-88 88z m0 40c-71 0-128-57-128-128 0-71 57-128 128-128 71 0 128 57 128 128 0 71-57 128-128 128z m0-224c-53 0-96 43-96 96 0 53 43 96 96 96 53 0 96-43 96-96 0-53-43-96-96-96z m-109 2l-83-146 96 0 48-80 48 106 34 74c-11-3-22-4-34-4-44 0-83 19-109 50z m218 0c-15-18-34-31-56-40l-45-98 40-88 48 80 96 0z"/>
<glyph glyph-name="link" unicode="&#57350;" d="M445 445c-51 51-134 51-185 0l-47-47c28 1 57-5 84-18l13 14c23 23 61 23 84 0 23-23 23-61 0-84l-67-67c-23-23-61-23-84 0-14 14-37 14-51 0-14-14-14-37 0-51 51-51 135-51 186 0l67 67c51 52 51 135 0 186z m-243-327c-24-23-61-23-84 0-23 23-23 60 0 83l67 68c23 23 61 23 84 0 14-14 37-14 51 0 14 14 14 37 0 51-51 51-135 51-186 0l-67-68c-51-51-51-134 0-185 51-51 134-51 186 0l46 47c-28-1-57 5-83 18z"/>
</font>
</defs>
</svg>
